<svg xmlns="http://www.w3.org/2000/svg" xmlns:xlink="http://www.w3.org/1999/xlink" viewBox="0 0 1920 1080"><defs><style>.cls-1{isolation:isolate;}.cls-2{fill:#7feb97;}.cls-3{fill:#c6f7ca;}.cls-21,.cls-22,.cls-4{fill:#fff;}.cls-4{opacity:0.5;}.cls-5{fill:#0193fc;}.cls-31,.cls-34,.cls-35,.cls-6{fill:none;}.cls-35,.cls-6{stroke:#fff;}.cls-31,.cls-34,.cls-6{stroke-miterlimit:10;}.cls-34,.cls-35,.cls-6{stroke-width:4px;}.cls-7{fill:url(#linear-gradient);}.cls-8{fill:url(#linear-gradient-2);}.cls-9{fill:#102a38;}.cls-10,.cls-19,.cls-27,.cls-30{opacity:0.4;}.cls-10{fill:url(#linear-gradient-3);}.cls-11,.cls-22{mix-blend-mode:multiply;}.cls-11{fill:url(#linear-gradient-4);}.cls-12{fill:#57ca96;}.cls-13{fill:url(#linear-gradient-5);}.cls-14{fill:#ff8b6c;}.cls-15{fill:#333;}.cls-16{fill:url(#linear-gradient-6);}.cls-17{fill:url(#linear-gradient-7);}.cls-18{fill:#225679;}.cls-19{fill:url(#linear-gradient-8);}.cls-20{fill:url(#linear-gradient-9);}.cls-23{fill:url(#linear-gradient-10);}.cls-24{fill:url(#linear-gradient-11);}.cls-25,.cls-33{fill:#37a1a3;}.cls-26{fill:#bde55d;}.cls-27{fill:url(#linear-gradient-12);}.cls-28{fill:#f7b1a6;}.cls-29{fill:#e2928a;}.cls-30{fill:url(#linear-gradient-13);}.cls-31{stroke:#225679;stroke-width:2.3px;}.cls-32{opacity:0.65;}.cls-33{opacity:0.3;}.cls-34{stroke:#37a1a3;}.cls-35{stroke-linecap:round;stroke-linejoin:round;stroke-dasharray:10.62 7.96;}</style><linearGradient id="linear-gradient" x1="726.11" y1="660.22" x2="572.16" y2="574.29" gradientUnits="userSpaceOnUse"><stop offset="0" stop-color="#ffc39a"/><stop offset="1" stop-color="#e8a38c"/></linearGradient><linearGradient id="linear-gradient-2" x1="990.66" y1="574.77" x2="836.71" y2="488.83" gradientTransform="translate(-412 549.2) rotate(-26.01)" xlink:href="#linear-gradient"/><linearGradient id="linear-gradient-3" x1="618.34" y1="559.01" x2="629.39" y2="606.21" gradientUnits="userSpaceOnUse"><stop offset="0" stop-color="#3945ba"/><stop offset="1" stop-color="#0c176f"/></linearGradient><linearGradient id="linear-gradient-4" x1="611.37" y1="766.41" x2="578.04" y2="766.41" gradientUnits="userSpaceOnUse"><stop offset="0" stop-color="#290e5c"/><stop offset="1" stop-color="#3f0e82"/></linearGradient><linearGradient id="linear-gradient-5" x1="623.26" y1="508.44" x2="547.49" y2="508.44" xlink:href="#linear-gradient"/><linearGradient id="linear-gradient-6" x1="622.24" y1="483.75" x2="548.95" y2="483.75" xlink:href="#linear-gradient"/><linearGradient id="linear-gradient-7" x1="622.24" y1="491.1" x2="548.95" y2="491.1" xlink:href="#linear-gradient"/><linearGradient id="linear-gradient-8" x1="496.55" y1="598.91" x2="569.28" y2="598.91" xlink:href="#linear-gradient-3"/><linearGradient id="linear-gradient-9" x1="682.96" y1="679.82" x2="529.01" y2="590.9" xlink:href="#linear-gradient"/><linearGradient id="linear-gradient-10" x1="678.89" y1="686.85" x2="524.94" y2="597.94" xlink:href="#linear-gradient"/><linearGradient id="linear-gradient-11" x1="738.37" y1="638.27" x2="584.42" y2="552.33" xlink:href="#linear-gradient"/><linearGradient id="linear-gradient-12" x1="1604.33" y1="786.75" x2="1585.88" y2="780.87" xlink:href="#linear-gradient-3"/><linearGradient id="linear-gradient-13" x1="1543.59" y1="615.26" x2="1575.68" y2="615.26" xlink:href="#linear-gradient-3"/></defs><title>12-Fastdatascience-Blog-Natural-Language-Processing</title><g class="cls-1"><g id="_12:_Natural_Language_Processing" data-name="12: Natural Language Processing"><rect class="cls-2" width="1920" height="1080"/><path class="cls-3" d="M221.56,1013.67s-155.35-183.89-38.34-384c113.21-193.58,279.14-98.89,475.33-336.55s493.21-155.4,647.43-48.22c186.44,129.57,583,262.52,451.66,771.41Z"/><path class="cls-4" d="M1173.15,258.6V242.11a3.35,3.35,0,0,0-3.35-3.35h-4a2.92,2.92,0,0,1-2.83-2.29,60.41,60.41,0,0,0-7.55-18.29,2.93,2.93,0,0,1,.38-3.62l2.83-2.82a3.36,3.36,0,0,0,0-4.73L1147,195.34a3.37,3.37,0,0,0-4.74,0l-2.82,2.82a2.91,2.91,0,0,1-3.62.38,60.58,60.58,0,0,0-18.29-7.56,2.91,2.91,0,0,1-2.29-2.82v-4a3.35,3.35,0,0,0-3.35-3.35h-16.49a3.35,3.35,0,0,0-3.35,3.35v4a2.92,2.92,0,0,1-2.29,2.83,60.58,60.58,0,0,0-18.29,7.56,2.93,2.93,0,0,1-3.63-.38l-2.81-2.82a3.36,3.36,0,0,0-4.73,0L1048.58,207a3.36,3.36,0,0,0,0,4.73l2.82,2.82a2.9,2.9,0,0,1,.38,3.62,60.82,60.82,0,0,0-7.55,18.29,2.92,2.92,0,0,1-2.83,2.29h-4a3.35,3.35,0,0,0-3.35,3.35V258.6a3.35,3.35,0,0,0,3.35,3.35h4a2.91,2.91,0,0,1,2.82,2.29,60.69,60.69,0,0,0,7.56,18.29,2.93,2.93,0,0,1-.38,3.62l-2.83,2.82a3.36,3.36,0,0,0,0,4.73l11.67,11.67a3.36,3.36,0,0,0,4.73,0l2.82-2.83a2.92,2.92,0,0,1,3.62-.38,60.65,60.65,0,0,0,18.29,7.54,2.92,2.92,0,0,1,2.29,2.83v4a3.35,3.35,0,0,0,3.35,3.35h16.49a3.35,3.35,0,0,0,3.35-3.35v-4a2.92,2.92,0,0,1,2.29-2.83,60.49,60.49,0,0,0,18.28-7.54,2.91,2.91,0,0,1,3.62.38l2.83,2.83a3.37,3.37,0,0,0,4.74,0l11.66-11.67a3.36,3.36,0,0,0,0-4.73l-2.83-2.82a2.93,2.93,0,0,1-.38-3.63,60.76,60.76,0,0,0,7.55-18.28,2.92,2.92,0,0,1,2.83-2.29h4A3.35,3.35,0,0,0,1173.15,258.6Zm-73.47,27A35.45,35.45,0,1,1,1139,250.35,35.55,35.55,0,0,1,1099.68,285.6Z"/><path class="cls-4" d="M1258.9,395.94V385a2.23,2.23,0,0,0-2.23-2.23H1254a1.94,1.94,0,0,1-1.88-1.52,40.35,40.35,0,0,0-5-12.18,2,2,0,0,1,.26-2.41l1.88-1.88a2.22,2.22,0,0,0,0-3.14l-7.76-7.77a2.23,2.23,0,0,0-3.15,0l-1.88,1.88a2,2,0,0,1-2.41.25,40.44,40.44,0,0,0-12.17-5,1.93,1.93,0,0,1-1.53-1.88v-2.67a2.22,2.22,0,0,0-2.23-2.22h-11a2.22,2.22,0,0,0-2.22,2.22v2.67a1.93,1.93,0,0,1-1.53,1.88,40.44,40.44,0,0,0-12.17,5,2,2,0,0,1-2.41-.25l-1.88-1.88a2.23,2.23,0,0,0-3.15,0L1176,361.6a2.22,2.22,0,0,0,0,3.14l1.88,1.88a2,2,0,0,1,.25,2.41,40.22,40.22,0,0,0-5,12.18,2,2,0,0,1-1.89,1.52h-2.67a2.23,2.23,0,0,0-2.23,2.23v11a2.22,2.22,0,0,0,2.23,2.22h2.67a2,2,0,0,1,1.89,1.53,40.17,40.17,0,0,0,5,12.17,2,2,0,0,1-.25,2.41l-1.88,1.88a2.23,2.23,0,0,0,0,3.15l7.76,7.76a2.23,2.23,0,0,0,3.15,0l1.88-1.88a2,2,0,0,1,2.41-.25,40.68,40.68,0,0,0,12.17,5,1.93,1.93,0,0,1,1.53,1.88v2.68a2.23,2.23,0,0,0,2.22,2.23h11a2.23,2.23,0,0,0,2.23-2.23v-2.68a1.93,1.93,0,0,1,1.53-1.88,40.49,40.49,0,0,0,12.16-5,2,2,0,0,1,2.41.26l1.89,1.88a2.23,2.23,0,0,0,3.15,0l7.76-7.76a2.23,2.23,0,0,0,0-3.15l-1.88-1.88a1.94,1.94,0,0,1-.26-2.41,40.44,40.44,0,0,0,5-12.17,1.93,1.93,0,0,1,1.88-1.53h2.68A2.22,2.22,0,0,0,1258.9,395.94Zm-48.9,18a23.6,23.6,0,1,1,26.19-23.47A23.68,23.68,0,0,1,1210,413.91Z"/><path class="cls-4" d="M1361.14,875.17v-9.81a2,2,0,0,0-2-2h-2.4a1.74,1.74,0,0,1-1.68-1.37,36.35,36.35,0,0,0-4.49-10.88,1.75,1.75,0,0,1,.22-2.16l1.68-1.68a2,2,0,0,0,0-2.81l-6.94-6.94a2,2,0,0,0-2.81,0l-1.68,1.68a1.75,1.75,0,0,1-2.16.22,35.9,35.9,0,0,0-10.88-4.5,1.73,1.73,0,0,1-1.36-1.68v-2.38a2,2,0,0,0-2-2h-9.82a2,2,0,0,0-2,2v2.38a1.73,1.73,0,0,1-1.37,1.68,36.11,36.11,0,0,0-10.88,4.5,1.74,1.74,0,0,1-2.16-.23l-1.67-1.67a2,2,0,0,0-2.82,0l-6.94,6.94a2,2,0,0,0,0,2.81l1.68,1.68a1.75,1.75,0,0,1,.23,2.16,36,36,0,0,0-4.5,10.88,1.74,1.74,0,0,1-1.68,1.37h-2.39a2,2,0,0,0-2,2v9.81a2,2,0,0,0,2,2h2.39a1.73,1.73,0,0,1,1.68,1.37,36.11,36.11,0,0,0,4.5,10.88,1.72,1.72,0,0,1-.23,2.15l-1.68,1.68a2,2,0,0,0,0,2.82L1294,903a2,2,0,0,0,2.82,0l1.68-1.68a1.72,1.72,0,0,1,2.15-.23,36.35,36.35,0,0,0,10.88,4.49,1.73,1.73,0,0,1,1.37,1.68v2.4a2,2,0,0,0,2,2h9.82a2,2,0,0,0,2-2v-2.4a1.73,1.73,0,0,1,1.36-1.68,36.24,36.24,0,0,0,10.88-4.49,1.72,1.72,0,0,1,2.15.23l1.69,1.68a2,2,0,0,0,2.81,0l6.94-6.94a2,2,0,0,0,0-2.82l-1.68-1.68a1.74,1.74,0,0,1-.23-2.15,36.11,36.11,0,0,0,4.5-10.88,1.73,1.73,0,0,1,1.68-1.37h2.4A2,2,0,0,0,1361.14,875.17Zm-43.72,16.07a21.1,21.1,0,1,1,23.41-21A21.17,21.17,0,0,1,1317.42,891.24Z"/><path class="cls-4" d="M482.23,572.11V564.6a1.53,1.53,0,0,0-1.52-1.53h-1.83a1.32,1.32,0,0,1-1.29-1,27.76,27.76,0,0,0-3.44-8.32,1.33,1.33,0,0,1,.17-1.65l1.29-1.29a1.53,1.53,0,0,0,0-2.15l-5.31-5.31a1.51,1.51,0,0,0-2.15,0l-1.29,1.28a1.33,1.33,0,0,1-1.65.17,27.87,27.87,0,0,0-8.32-3.44,1.32,1.32,0,0,1-1.05-1.28v-1.83a1.52,1.52,0,0,0-1.52-1.52h-7.51a1.52,1.52,0,0,0-1.52,1.52V540a1.32,1.32,0,0,1-1.05,1.28,27.92,27.92,0,0,0-8.33,3.44,1.33,1.33,0,0,1-1.65-.17L433,543.31a1.51,1.51,0,0,0-2.15,0l-5.31,5.31a1.51,1.51,0,0,0,0,2.15l1.28,1.28a1.34,1.34,0,0,1,.18,1.65,27.41,27.41,0,0,0-3.44,8.33,1.32,1.32,0,0,1-1.29,1h-1.83a1.53,1.53,0,0,0-1.52,1.53v7.51a1.52,1.52,0,0,0,1.52,1.52h1.83a1.34,1.34,0,0,1,1.29,1A27.31,27.31,0,0,0,427,583a1.33,1.33,0,0,1-.18,1.65l-1.28,1.28a1.52,1.52,0,0,0,0,2.16l5.31,5.31a1.53,1.53,0,0,0,2.15,0l1.29-1.29a1.33,1.33,0,0,1,1.65-.17,27.48,27.48,0,0,0,8.32,3.43,1.33,1.33,0,0,1,1.05,1.29v1.83a1.52,1.52,0,0,0,1.52,1.53h7.51a1.52,1.52,0,0,0,1.52-1.53v-1.83a1.33,1.33,0,0,1,1.05-1.29,27.59,27.59,0,0,0,8.32-3.43,1.33,1.33,0,0,1,1.65.17l1.29,1.29a1.53,1.53,0,0,0,2.15,0l5.31-5.31a1.54,1.54,0,0,0,0-2.16l-1.29-1.28a1.33,1.33,0,0,1-.17-1.65,27.82,27.82,0,0,0,3.44-8.33,1.32,1.32,0,0,1,1.28-1h1.84A1.52,1.52,0,0,0,482.23,572.11ZM448.78,584.4a16.14,16.14,0,1,1,17.91-16A16.19,16.19,0,0,1,448.78,584.4Z"/><path class="cls-5" d="M1202.29,364.06s30.63,58.85,33,114.47c2.15,49.5-17.2,99.43-12.9,127.37s48.91,90.83,51.59,109.49c3.82,26.48-42.92,24.53-52.6,36-3.91,4.65,7.26,33.79,7.26,37.28S1220,800,1220,800s8.06,7,6.45,12.1-11.42,22.18-12.49,32.39,1.88,35.62-2,52.4c-12.87,55.43-138.39,5.44-152.9,25.08s-8.6,94.35-8.6,94.35h-273s21-130.72-18.54-208.25C741,773,604.33,668.83,653.84,446.68,709.37,197.6,1103.13,174.62,1202.29,364.06Z"/><path class="cls-6" d="M896.14,393.22h10.5a1.17,1.17,0,0,1,1.17,1.17V412a0,0,0,0,1,0,0H895a0,0,0,0,1,0,0v-17.6A1.17,1.17,0,0,1,896.14,393.22Z"/><path class="cls-6" d="M936.84,393.22h10.5a1.17,1.17,0,0,1,1.17,1.17V412a0,0,0,0,1,0,0H935.67a0,0,0,0,1,0,0v-17.6A1.17,1.17,0,0,1,936.84,393.22Z"/><path class="cls-6" d="M977.53,393.22H988a1.17,1.17,0,0,1,1.17,1.17V412a0,0,0,0,1,0,0H976.37a0,0,0,0,1,0,0v-17.6A1.17,1.17,0,0,1,977.53,393.22Z"/><path class="cls-6" d="M977.53,590.11H988a1.17,1.17,0,0,1,1.17,1.17v17.6a0,0,0,0,1,0,0H976.37a0,0,0,0,1,0,0v-17.6A1.17,1.17,0,0,1,977.53,590.11Z" transform="translate(1965.57 1198.98) rotate(180)"/><path class="cls-6" d="M936.84,590.11h10.5a1.17,1.17,0,0,1,1.17,1.17v17.6a0,0,0,0,1,0,0H935.67a0,0,0,0,1,0,0v-17.6A1.17,1.17,0,0,1,936.84,590.11Z" transform="translate(1884.17 1198.98) rotate(180)"/><path class="cls-6" d="M896.14,590.11h10.5a1.17,1.17,0,0,1,1.17,1.17v17.6a0,0,0,0,1,0,0H895a0,0,0,0,1,0,0v-17.6A1.17,1.17,0,0,1,896.14,590.11Z" transform="translate(1802.77 1198.98) rotate(180)"/><path class="cls-6" d="M1037.16,451h10.5a1.17,1.17,0,0,1,1.17,1.17v17.6a0,0,0,0,1,0,0H1036a0,0,0,0,1,0,0v-17.6A1.17,1.17,0,0,1,1037.16,451Z" transform="translate(1502.76 -582.06) rotate(90)"/><path class="cls-6" d="M1037.16,491.67h10.5a1.17,1.17,0,0,1,1.17,1.17v17.6a0,0,0,0,1,0,0H1036a0,0,0,0,1,0,0v-17.6A1.17,1.17,0,0,1,1037.16,491.67Z" transform="translate(1543.46 -541.36) rotate(90)"/><path class="cls-6" d="M1037.16,532.36h10.5a1.17,1.17,0,0,1,1.17,1.17v17.6a0,0,0,0,1,0,0H1036a0,0,0,0,1,0,0v-17.6A1.17,1.17,0,0,1,1037.16,532.36Z" transform="translate(1584.16 -500.66) rotate(90)"/><path class="cls-6" d="M836.51,532.36H847a1.17,1.17,0,0,1,1.17,1.17v17.6a0,0,0,0,1,0,0H835.34a0,0,0,0,1,0,0v-17.6A1.17,1.17,0,0,1,836.51,532.36Z" transform="translate(300.01 1383.51) rotate(-90)"/><path class="cls-6" d="M836.51,491.67H847a1.17,1.17,0,0,1,1.17,1.17v17.6a0,0,0,0,1,0,0H835.34a0,0,0,0,1,0,0v-17.6A1.17,1.17,0,0,1,836.51,491.67Z" transform="translate(340.71 1342.81) rotate(-90)"/><path class="cls-6" d="M836.51,451H847a1.17,1.17,0,0,1,1.17,1.17v17.6a0,0,0,0,1,0,0H835.34a0,0,0,0,1,0,0v-17.6A1.17,1.17,0,0,1,836.51,451Z" transform="translate(381.41 1302.11) rotate(-90)"/><rect class="cls-6" x="851.14" y="411.99" width="181.89" height="178.12" rx="6.72" ry="6.72"/><rect class="cls-6" x="863.12" y="423.72" width="157.93" height="154.66" rx="4.13" ry="4.13"/><polyline class="cls-6" points="901.38 608.88 901.38 721.69 828.61 721.69"/><line class="cls-6" x1="942.08" y1="608.88" x2="942.08" y2="769.47"/><polyline class="cls-6" points="982.78 608.88 982.78 661.97 1025.03 661.97 1025.03 701.78 1087.41 701.78"/><polyline class="cls-6" points="832.37 541.75 740.36 541.75 740.36 586.32"/><line class="cls-6" x1="1051.79" y1="501.05" x2="1129.21" y2="501.05"/><polyline class="cls-6" points="832.37 501.05 762.26 501.05 762.26 486.79 709.83 486.79"/><line class="cls-6" x1="832.37" y1="460.35" x2="740.36" y2="460.35"/><polyline class="cls-6" points="1051.79 541.75 1098.02 541.75 1098.02 612.64"/><polyline class="cls-6" points="1051.79 460.35 1114.83 460.35 1114.83 436.13 1147.13 436.13"/><polyline class="cls-6" points="942.08 393.22 942.08 348.1 921.51 348.1 921.51 287.05"/><polyline class="cls-6" points="901.38 393.22 901.38 304.3 855.16 304.3"/><polyline class="cls-6" points="982.78 393.22 982.78 325.54 1042.41 325.54"/><circle class="cls-6" cx="855.16" cy="304.3" r="5.64"/><circle class="cls-6" cx="921.51" cy="281.41" r="5.64"/><circle class="cls-6" cx="1042.41" cy="325.54" r="5.64"/><circle class="cls-6" cx="1147.13" cy="436.13" r="5.64"/><circle class="cls-6" cx="706.85" cy="486.79" r="5.64"/><circle class="cls-6" cx="740.36" cy="460.35" r="5.64"/><circle class="cls-6" cx="740.36" cy="591.96" r="5.64"/><circle class="cls-6" cx="1129.21" cy="501.05" r="5.64"/><circle class="cls-6" cx="942.08" cy="769.47" r="5.64"/><circle class="cls-6" cx="828.61" cy="721.69" r="5.64"/><circle class="cls-6" cx="1092.38" cy="701.78" r="5.64"/><circle class="cls-6" cx="1098.02" cy="618.28" r="5.64"/><path class="cls-7" d="M642.46,582.8l-37.85-5.6s13.71,42.17,25.59,60.2L655,622.48C649.78,603.61,642.46,582.8,642.46,582.8Z"/><path class="cls-8" d="M715,636.59c1.73,1.16,2.09,2.36,4.87,4.31,1.1.77,5.06,3.56,7.3-.33,1.38-.13,4.32-.25,5.24-3.32,1.15-.2,4.23-.33,5.06-3a40.74,40.74,0,0,0,5.55-3.65c3.94-3,8-6,6.16-8s-14.68-5.35-17.63-6.07-15.46,4-18.58,5.11-54-10.47-67.41-8.27l-15.39,24a7.79,7.79,0,0,0,2.65,2C656.68,645.85,712.31,638.77,715,636.59Z"/><path class="cls-9" d="M647,592.51a87.91,87.91,0,0,1-14.59,4,67.54,67.54,0,0,1-12.08,1.22l1.09-29.62,1.22-33.42S633.6,540,647,592.51Z"/><path class="cls-10" d="M632.36,596.54a67.54,67.54,0,0,1-12.08,1.22l1.09-29.62,5-5.54Z"/><path class="cls-9" d="M701.37,988.63l-9.85,6.4-14.07-3.21c-2.33-5.92-3.9-9.64-5.44-13-7.67-18.21-23.22-40.8-35.38-75.51-13.59-38.81-7-42.13-8.84-49.85s-16.11-35-21.18-44.65c-1.89-3.58-3.8-7.35-5.71-11.28-4.72-9.74-9.53-20.38-14.15-31.34-10.35-24.29-20.09-50.12-27.55-71.32h73.95s32.91,104.15,38.3,139C671.45,833.83,699.88,984.28,701.37,988.63Z"/><path class="cls-11" d="M600.9,797.52c-4.72-9.74-9.53-20.38-14.15-31.34l7.83-30.87Z"/><path class="cls-9" d="M522.93,694.86c-14.16,32.47,13.28,131.33,12.35,141.21-5.1,6.1-13.36,14.07-37.09,47.63S470.7,939.89,460.78,957c-2,2.64-3.81,7.92-8.25,9.81l10,11.12,9.29-.91c17.75-13.42,97.16-100.27,97.16-100.27,11-10.93,14.53-28.13,17-38.32,5.09-43.32,11.29-143.56,11.29-143.56Z"/><path class="cls-12" d="M567.41,521.94s-33.18,7.13-41.61,19.81c-17.84,26.84.55,83.06-3.43,112.92s-8.9,38.49,2.52,43.13,93.05,10.47,108.72-1.48c6-7.3-7-27.72-8.29-91.79-.49-24.55,9.88-61-2.75-69.8a98.24,98.24,0,0,0-23.1-10.91C588.75,520.48,577.25,519.55,567.41,521.94Z"/><path class="cls-13" d="M599.47,523.82c-11.84,6.95-33.89,1.81-32.06-1.88.82-1.67,2.38-8.2,3-11.17,1.49-7.06,1.14-13.24,1.7-21.15l25.11,4.59c-.19,6-.32,10.35-.13,14.31a62.35,62.35,0,0,0,1.56,12.05C598.83,521.34,599.25,523,599.47,523.82Z"/><path class="cls-14" d="M598.67,520.57C587.31,518.2,580.6,507,580.6,507l9.79-1.51,6.72,3A62.35,62.35,0,0,0,598.67,520.57Z"/><path class="cls-15" d="M617.15,457c2.06,1.52,4.43,4,4.1,12.32-.27,6.57-1.84,12.85-10.29,18-2.05,1.25-6-15-6.64-17.3"/><path class="cls-16" d="M618.28,466c0-8.55-5.13-9.3-13.26-12.55a32.44,32.44,0,0,0-27.43,2.16c-13.08,7.54-14.63,25.65-7.77,39.09s12.8,16.16,16.81,18.08c7.18,3.43,21,4.86,24.38,1C617.07,506.86,618.29,476.21,618.28,466Z"/><path class="cls-15" d="M582.93,443.82a10.52,10.52,0,0,0-4.61,1c-2.39,1.28-3.69,3.9-4.84,6.35-4.56-1.07-10.85,3.45-12.63,7.78-8,19.34,5.37,38.92,10.76,42a21.38,21.38,0,0,1,.25-2.6c.46-2.57.86-10.53,1.45-11.73s8.2-18.28,8.2-18.28c3.79,1.07,19.57,2,23.54,1.71,4.88-.32,10.05-.34,14.63-2.53s9-13.2,3.45-20.7C619.86,442.37,587.28,443.66,582.93,443.82Z"/><path class="cls-17" d="M579.94,496.35c-1,2.42-4.46,3-7,2.23a7.94,7.94,0,0,1-5.08-5.5c-.69-2.51-.8-5.55.52-7.8a3.82,3.82,0,0,1,5.14-1.55,9.87,9.87,0,0,1,2.44,2.08S582,491.18,579.94,496.35Z"/><path class="cls-15" d="M589.31,467.68s-.66,10.53-3,12.11-4.57,1.74-4.81,3-.83,6.84-.83,6.84H577s-.35-3.47-2.58-5.37-2.48-14-2.48-14,3-4.15,3.74-5a16.73,16.73,0,0,1,4.75-3.15,26.18,26.18,0,0,1,4.79-1.08C585.66,461.13,589.31,467.68,589.31,467.68Z"/><path class="cls-18" d="M738.29,1013.82c-7.88.29-33,0-43.33,0s-17.5.55-19.27-4.7c-.84-2.51-.36-10.16,1.76-17.33,0,0,12.53,3.85,23.92-3.18,5.13,2.9,13.75,6.6,18.09,9.21,5.1,3.06,17.37,7,21.3,8.19S746.16,1013.52,738.29,1013.82Z"/><path class="cls-18" d="M465.75,1014.77c-5.44-5.71-10.1-14.48-17-22.23s-10.15-10.18-10-15.14c.16-4.54,4-8.09,11.2-11.15,2.24-1,4.27-2.15,6.53-2.66C460.66,971,471.78,977,471.78,977c1.38,5.57,2.71,16.71,3.81,22.55,6.64,3.26,20.72,7.77,14.38,15.1A219.28,219.28,0,0,1,465.75,1014.77Z"/><path class="cls-19" d="M522.12,559.45A121,121,0,0,0,532,608.66h4.2s11.37,20.72,18.18,29.71C554.38,638.37,529.6,567,522.12,559.45Z"/><path class="cls-20" d="M566.47,577.45,534,591.8s9.27,27.55,22.32,49.94l27.61-9.83C576.39,612.76,566.47,577.45,566.47,577.45Z"/><path class="cls-9" d="M572.31,586.65c-8.3,6.47-18,10.81-39,15.34-19.49-42.91-9.49-61.78.33-66a18.79,18.79,0,0,1,13.07-.27A22.67,22.67,0,0,1,558.1,546.5C566.68,563.11,571.51,584.39,572.31,586.65Z"/><rect class="cls-21" x="564.58" y="627.95" width="200.47" height="32.96" transform="translate(-206.61 331.57) rotate(-24.36)"/><path class="cls-21" d="M818.19,593.09a2.36,2.36,0,0,1,3.33,2.41A38.11,38.11,0,1,1,805,559a2.36,2.36,0,0,1-.39,4.09l-26.73,12.1a4.14,4.14,0,0,0-2.39,3.35l-1.4,14.2a4.07,4.07,0,0,0,1.7,3.75l11.6,8.32a4.12,4.12,0,0,0,4.09.41Z"/><path class="cls-21" d="M532.59,662.47a38.11,38.11,0,1,0,50.43,19A38.1,38.1,0,0,0,532.59,662.47Zm36.8,28.17-1.69,17.09a5.45,5.45,0,0,1-3.18,4.44l-15.65,7.09a5.46,5.46,0,0,1-5.44-.55l-13.95-10a5.49,5.49,0,0,1-2.26-5l1.69-17.09a5.47,5.47,0,0,1,3.18-4.44l15.65-7.08a5.43,5.43,0,0,1,5.44.54l14,10A5.5,5.5,0,0,1,569.39,690.64Z"/><path class="cls-22" d="M733.1,623.47,601,683.29a9.06,9.06,0,0,1-12-4.52h0a9.06,9.06,0,0,1,4.52-12L725.62,607a9.07,9.07,0,0,1,12,4.52h0A9.06,9.06,0,0,1,733.1,623.47Z"/><path class="cls-23" d="M668.61,655c-.8-1.64-6-1.33-8.11-2.47s-7.41-2.32-7.41-2.32h0c-3.85-1.42-10.76-2.75-14.42-3.43-17.29-7.33-49.57-20.51-59.21-23.4l-23.17,18.36c8.91,8.65,52.58,17,75.08,21.37,3.55,7.28,4.45,8.12,6.41,10.8,2.14,2.94,4.62,3.51,7,2.33,2.27.81,5.53-.12,6.58-2.66,1.66.55,5.92.44,6.31-3.54,3.92-1.16,4.48-3.47,3.83-6.08-.18-.7-.54-1.79-1-3a15,15,0,0,0,3.61-.29C666.54,660,669.41,656.64,668.61,655Z"/><path class="cls-24" d="M741.6,628.17c-2.78-1.83-6.64-5.14-9.68-6.31-2.84-1.09-4.83.24-4.83,1.53-4.54-2.76-7.9-.6-7.82,1,.28.94,1.8,2.07,2.5,2.53-3.87-1.79-6.95,1.41-6.06,2.9a27.7,27.7,0,0,0,3.83,3.83c-.12,0-2.48-1.32-3.9-1.26-3,.14-2.74,2-1.31,3.77a19.08,19.08,0,0,0,6.1,5c3.32.9,15.42-7.19,16.9-8.32C740.54,632.9,742.9,629,741.6,628.17Z"/><rect class="cls-18" x="1396.74" y="694.45" width="86.71" height="321.9"/><rect class="cls-25" x="1408.24" y="694.45" width="80.07" height="321.9"/><path class="cls-18" d="M1573.43,779.78l-12.29-1.46L1528.32,571.4a4.05,4.05,0,0,0-4-3.42h-227l-2.22-7.1-9,5.72a2.82,2.82,0,0,0-.29.18l0,0h0a4,4,0,0,0-1.49,3.81l33.78,212.94a4.05,4.05,0,0,0,4,3.42h239a4,4,0,0,0,2.7-1.06v0Z"/><path class="cls-25" d="M1570.75,780.79h-239a4.05,4.05,0,0,1-4-3.42l-33.78-212.94a4.06,4.06,0,0,1,4-4.69h239a4.05,4.05,0,0,1,4,3.42l33.78,212.94A4.06,4.06,0,0,1,1570.75,780.79Z"/><path class="cls-26" d="M1559.57,770.68H1340.15a2.58,2.58,0,0,1-2.55-2.17l-31-195.68a2.57,2.57,0,0,1,2.55-3h219.42a2.58,2.58,0,0,1,2.55,2.17l31,195.68A2.57,2.57,0,0,1,1559.57,770.68Z"/><path class="cls-21" d="M1372.15,635h-22.93a1.49,1.49,0,0,1-1.41-1.22h0a1,1,0,0,1,1-1.22h22.92a1.48,1.48,0,0,1,1.41,1.22h0A1,1,0,0,1,1372.15,635Z"/><path class="cls-21" d="M1372.87,639.54H1350a1.48,1.48,0,0,1-1.42-1.22h0a1,1,0,0,1,1-1.22h22.92a1.49,1.49,0,0,1,1.42,1.22h0A1,1,0,0,1,1372.87,639.54Z"/><path class="cls-21" d="M1373.59,644.12h-22.92a1.48,1.48,0,0,1-1.41-1.22h0a1,1,0,0,1,1-1.22h22.93a1.48,1.48,0,0,1,1.41,1.22h0A1,1,0,0,1,1373.59,644.12Z"/><path class="cls-21" d="M1361.64,648.69h-10.25a1.49,1.49,0,0,1-1.41-1.22h0a1,1,0,0,1,1-1.22h10.24a1.48,1.48,0,0,1,1.41,1.22h0A1,1,0,0,1,1361.64,648.69Z"/><path class="cls-21" d="M1519.64,713.45h-22.92a1.47,1.47,0,0,1-1.41-1.22h0a1,1,0,0,1,1-1.22h22.93a1.49,1.49,0,0,1,1.41,1.22h0A1,1,0,0,1,1519.64,713.45Z"/><path class="cls-21" d="M1520.37,718h-22.93a1.48,1.48,0,0,1-1.41-1.22h0a1,1,0,0,1,1-1.21H1520a1.47,1.47,0,0,1,1.41,1.21h0A1,1,0,0,1,1520.37,718Z"/><path class="cls-21" d="M1521.09,722.6h-22.92a1.49,1.49,0,0,1-1.42-1.22h0a1,1,0,0,1,1-1.22h22.93a1.48,1.48,0,0,1,1.41,1.22h0A1,1,0,0,1,1521.09,722.6Z"/><path class="cls-21" d="M1509.13,727.17h-10.24a1.49,1.49,0,0,1-1.41-1.22h0a1,1,0,0,1,1-1.22h10.24a1.49,1.49,0,0,1,1.41,1.22h0A1,1,0,0,1,1509.13,727.17Z"/><path class="cls-21" d="M1515.48,609.86h-22.93a1.47,1.47,0,0,1-1.41-1.22h0a1,1,0,0,1,1-1.22h22.93a1.49,1.49,0,0,1,1.41,1.22h0A1,1,0,0,1,1515.48,609.86Z"/><path class="cls-21" d="M1516.2,614.44h-22.93a1.49,1.49,0,0,1-1.41-1.22h0a1,1,0,0,1,1-1.22h22.92a1.48,1.48,0,0,1,1.42,1.22h0A1,1,0,0,1,1516.2,614.44Z"/><path class="cls-21" d="M1504.24,619H1494a1.48,1.48,0,0,1-1.41-1.22h0a1,1,0,0,1,1-1.22h10.25a1.49,1.49,0,0,1,1.41,1.22h0A1,1,0,0,1,1504.24,619Z"/><path class="cls-25" d="M1497.46,667.56a19.08,19.08,0,0,0-8.39-15.81,7.32,7.32,0,0,0-4.5-12.14,7.56,7.56,0,0,0,.37-2.19,7.37,7.37,0,0,0-7.39-7.37l-.28,0a12.22,12.22,0,0,0-11.14-7.15,11.8,11.8,0,0,0-4.71,1,7.66,7.66,0,0,0-7.53-6.29,7.57,7.57,0,0,0-5.71,2.59,9.43,9.43,0,0,0-16.69-.77,8.61,8.61,0,0,0-14.9,4.52,15.59,15.59,0,0,0-19.7,8.16,6.33,6.33,0,0,0-4.34-.21,6.22,6.22,0,0,0-4.12,4.06,6.28,6.28,0,0,0-.19,3.28,15.67,15.67,0,0,0,6.13,30,5.46,5.46,0,0,0,3.55,7.7,38.9,38.9,0,0,0,7.57,1.28,7,7,0,0,1,6.27,6.15,7.79,7.79,0,0,0,1.52,3.55c3.64,4.75,15,3,20,8s5.66,6.88,6.31,11.52c.49,3.33-2.35,9.88-4,14.38a3,3,0,1,0,5.73,1.57,22.11,22.11,0,0,1,4.78-10.14c1-1.08,2.57-.84,5.34-1.94a12.92,12.92,0,0,1,7.11-.4,12.38,12.38,0,0,0,4.92-.07,12.34,12.34,0,0,0,9.37-14.33,12.17,12.17,0,0,0,5.2.91,12.4,12.4,0,0,0,9.14-5.13,11.32,11.32,0,0,0,2.36-9.33A19,19,0,0,0,1497.46,667.56Zm-85.77-18.42c-.46-.11-.93-.32-1.46-.42s-1-.16-1.61-.25-1.15-.07-1.71,0a8.62,8.62,0,0,0-1.7.28,7.41,7.41,0,0,0-1.68.52,11.53,11.53,0,0,0-1.53.77,22.75,22.75,0,0,0-2.66,1.81c-1.52,1.22-2.52,2.2-2.52,2.2a9.65,9.65,0,0,1,1.42-3.17,12.94,12.94,0,0,1,2.47-2.71,9.58,9.58,0,0,1,3.55-1.79,7.35,7.35,0,0,0-.4-1.33,10.46,10.46,0,0,0-1-2.26,8.13,8.13,0,0,0-1.93-2.1,9.85,9.85,0,0,0-5.2-1.91,11.47,11.47,0,0,0-2.64,0,10.94,10.94,0,0,1,2.66-.44,10.63,10.63,0,0,1,5.88,1.23,10.33,10.33,0,0,1,2.63,2.13,13.44,13.44,0,0,1,1.63,2.44,10.17,10.17,0,0,1,.82,1.85h.21a10.6,10.6,0,0,1,2.12.25,18.18,18.18,0,0,1,1.86.68,8.85,8.85,0,0,1,1.5.88,9.67,9.67,0,0,1,1.91,1.68l.63.73-.94-.31A22,22,0,0,0,1411.69,649.14Zm18.23,8.77a8.05,8.05,0,0,1-.11,1.26,8.15,8.15,0,0,1-.26,1.4,12.08,12.08,0,0,1-.42,1.47,9.89,9.89,0,0,1-.63,1.46,15.71,15.71,0,0,1-3.59,4.74c-.25.23-.51.44-.74.63a13.65,13.65,0,0,1,1,1.58,12.5,12.5,0,0,1,.82,2.15,9.83,9.83,0,0,1,.23,4,9.4,9.4,0,0,1-.86,2.61c-.33.59-.54.89-.54.89s0-.37.07-1a15.24,15.24,0,0,0-.07-2.54,12.32,12.32,0,0,0-.91-3.24,12.52,12.52,0,0,0-2-3.2c-.44-.42-.88-.93-1.37-1.33a16,16,0,0,0-1.5-1.14,15.27,15.27,0,0,0-3-1.51,15.62,15.62,0,0,0-3.42-.82,7.23,7.23,0,0,1,3.7-.68,9.77,9.77,0,0,1,3.87,1,10.21,10.21,0,0,1,2.31,1.56c.3-.17.65-.37,1.07-.65a13.75,13.75,0,0,0,3.83-3.69,9.08,9.08,0,0,0,.77-1.23c.25-.42.42-.87.63-1.29s.28-.88.44-1.28a8.45,8.45,0,0,0,.28-1.19,12.67,12.67,0,0,0,.26-1.82c0-.44.06-.7.06-.7s0,.26.05.7A12.29,12.29,0,0,1,1429.92,657.91Zm-.37-20.91a3.23,3.23,0,0,1-.44,0c.07.35.12.7.19,1,.07.82,0,1.64,0,2.4s-.28,1.52-.42,2.2a17,17,0,0,1-.66,1.84,11,11,0,0,1-1.37,2.54c-.4.58-.63.88-.63.88s0-.39.16-1.07.37-1.61.42-2.73c0-.55.16-1.16.21-1.77s0-1.28,0-2-.14-1.32-.21-2-.24-1.38-.49-2a9.26,9.26,0,0,0-.77-1.93,16.93,16.93,0,0,0-1-1.78c-.42-.53-.74-1.11-1.16-1.58a17.08,17.08,0,0,0-1.17-1.33,27.72,27.72,0,0,0-2.77-2.63,10.32,10.32,0,0,1,3.7,1.49,13,13,0,0,1,3.17,2.7,12.06,12.06,0,0,1,1.38,2,10.42,10.42,0,0,1,.63,1.36,9.38,9.38,0,0,0,1.23.25,9.64,9.64,0,0,0,4.39-.28,8.78,8.78,0,0,0,3.68-2.19l-.91-.72a9.61,9.61,0,0,1-1.47-1.61,8.46,8.46,0,0,1-1.54-3.52,7.12,7.12,0,0,1,0-2.63,6.21,6.21,0,0,1,.28-.94s.07.33.24.91a12.61,12.61,0,0,0,.86,2.22,11.09,11.09,0,0,0,1.89,2.51c.4.42.86.77,1.3,1.17.24.19.49.35.7.49a5.69,5.69,0,0,0,.84.47,10.07,10.07,0,0,0,1.63.84,16.29,16.29,0,0,0,1.68.62c.56.14,1.1.28,1.64.38s1,.16,1.53.21a15.56,15.56,0,0,0,3.36-.1,7.35,7.35,0,0,1-3.24,1.54,10.39,10.39,0,0,1-3.75.17,14,14,0,0,1-2.1-.52,14.55,14.55,0,0,1-2-.91,4.66,4.66,0,0,1-.53-.32,10,10,0,0,1-3.59,3.1A11.55,11.55,0,0,1,1429.55,637Zm38.82,48.79c-.61.07-1.47,0-2.5.21-.49.07-1,.12-1.58.21s-1.12.26-1.73.37l-1.72.61a10.91,10.91,0,0,0-1.63.84,14.23,14.23,0,0,0-2.89,2.26c-.38.47-.82.86-1.15,1.33s-.67.86-1,1.28a27,27,0,0,0-1.8,3,9.32,9.32,0,0,1,.49-3.59,11.52,11.52,0,0,1,1.68-3.4,11.9,11.9,0,0,1,1.47-1.66c.26-.23.56-.39.84-.6-.16-.19-.31-.4-.47-.63a11.45,11.45,0,0,1-1.93-4.64,8.5,8.5,0,0,1,0-2.66,6.79,6.79,0,0,1,.26-1.16,5.44,5.44,0,0,1,.37-1,9.23,9.23,0,0,1,1-1.79,11.78,11.78,0,0,0-.65,1.93,4.36,4.36,0,0,0-.17,1,4.48,4.48,0,0,0,0,1.1,7.16,7.16,0,0,0,.44,2.31,9.79,9.79,0,0,0,2.36,3.56,9,9,0,0,0,.81.73c.38-.14.75-.28,1.1-.45a18.44,18.44,0,0,1,2.14-.51c.7,0,1.38,0,2-.07a17,17,0,0,1,1.77.23,10.54,10.54,0,0,1,2.52.75c.58.23.91.4.91.4Zm1.68-24.94a10.34,10.34,0,0,1-7.28-2.45,11.75,11.75,0,0,1-3.14-5.22,14.67,14.67,0,0,1-.38-1.47,14.41,14.41,0,0,1-2.19.28,13.11,13.11,0,0,1-2.47-.17c-.14.33-.3.73-.49,1.17a9.4,9.4,0,0,1-.82,1.49,9.66,9.66,0,0,1-1.14,1.66,9.9,9.9,0,0,1-1.54,1.65c-.39.33-.81.66-1.23,1a11.46,11.46,0,0,1,.84,1,10.13,10.13,0,0,1,2,4.82,9.65,9.65,0,0,1-.07,2.75,12.4,12.4,0,0,1-.68,2.24,9.94,9.94,0,0,1-.7,1.45c-.14.25-.23.42-.28.49s.1-.26.19-.54a11.6,11.6,0,0,0,.42-1.51,11.25,11.25,0,0,0,.26-2.2,8.62,8.62,0,0,0-.4-2.4,8.28,8.28,0,0,0-2.38-3.66,10.57,10.57,0,0,0-1.14-.86,2.42,2.42,0,0,0-.42-.23l0-.07c-.21.09-.42.18-.63.25a14.25,14.25,0,0,1-2.33.66,16.89,16.89,0,0,1-2.31.23,19.5,19.5,0,0,1-4-.26,19.9,19.9,0,0,1-3.7-1,18.9,18.9,0,0,0,3.75.59,19.61,19.61,0,0,0,3.92-.14c.72-.07,1.42-.31,2.14-.45a15.15,15.15,0,0,0,2.08-.81,9.92,9.92,0,0,0,1.84-1.14,9.3,9.3,0,0,0,1.56-1.43,8.88,8.88,0,0,0,1.17-1.53,9,9,0,0,0,.84-1.54,9.94,9.94,0,0,0,.58-1.38c.09-.37.21-.7.28-1a3.77,3.77,0,0,1-.65-.3,7.82,7.82,0,0,1-2.22-1.66,9.17,9.17,0,0,1-2.31-4.12,10.55,10.55,0,0,1-.35-3.22,6.26,6.26,0,0,1,.17-1.19,18,18,0,0,0,1.56,3.85,10.75,10.75,0,0,0,2.49,3,8.85,8.85,0,0,0,1.78,1.14,5.24,5.24,0,0,0,1,.39,1.69,1.69,0,0,0,.49.17,4.35,4.35,0,0,0,.58.14,11.2,11.2,0,0,0,2.22.23,15.54,15.54,0,0,0,6.15-1,11.37,11.37,0,0,0,2.5-1.54c.56-.49.86-.79.86-.79a9.58,9.58,0,0,1-.49,1.12,8.54,8.54,0,0,1-.79,1.14,7.59,7.59,0,0,1-1.35,1.28,8.73,8.73,0,0,1-1.89,1.15c-.14.07-.31.11-.45.18a11.18,11.18,0,0,0,.14,1.68,9.94,9.94,0,0,0,2,4.8,8.48,8.48,0,0,0,4.52,2.87,8.35,8.35,0,0,0,1.82.35l.7.12Zm2.54-24.2c-.12-.24-.24-.42-.35-.63s-.3-.44-.44-.65a11.93,11.93,0,0,0-1-1.22c-.35-.35-.68-.72-1-1s-.74-.6-1.09-.86-.75-.49-1.1-.7a14.3,14.3,0,0,0-2.54-1.14,5.91,5.91,0,0,1,3,0,8.2,8.2,0,0,1,2.89,1.24,9.46,9.46,0,0,1,1.4,1.11,14.22,14.22,0,0,1,1.19,1.4,8.59,8.59,0,0,1,.49.77c.16.31.3.59.42.87a8,8,0,0,1,.54,1.72,6.87,6.87,0,0,1-.1,3.19,5.5,5.5,0,0,1-.95,2,3.31,3.31,0,0,1-.54.6s.07-.28.16-.77a9.31,9.31,0,0,0,.12-2,8.87,8.87,0,0,0-.49-2.56A12.46,12.46,0,0,0,1472.59,636.65Zm9,16.9a17.66,17.66,0,0,0-2,1.51,13.13,13.13,0,0,0-2.14,2.62,11.11,11.11,0,0,0-.84,1.65,10,10,0,0,0-.61,1.8,16.9,16.9,0,0,0-.3,1.91,13,13,0,0,0-.07,1.86,14,14,0,0,0,.49,3.34,14.82,14.82,0,0,0,1.3,3.28,7.34,7.34,0,0,1-2.68-2.65,9.43,9.43,0,0,1-1.4-3.73,10.87,10.87,0,0,1,1.08-6.86,10.79,10.79,0,0,1,1.28-1.89,9.65,9.65,0,0,1,3.12-2.49,8.61,8.61,0,0,1,2.64-.79c.65-.07,1-.07,1-.07Z"/><path class="cls-9" d="M1652.05,986.45c-6.29,4.65-21.68,1.54-21.68,1.54l-29.71-117.66L1594.8,813l-2.39-23.33-1.17-7.86-6.69-44.57,13.83-23.38s43.27-7.54,46.32,5c3.18,13.06,4.38,27.65,2.2,40.47s-6.13,106.55-6.13,106.55,4.75,7.38,8.07,26.54S1652.05,986.45,1652.05,986.45Z"/><polygon class="cls-27" points="1607.25 758.4 1594.8 813 1592.41 789.67 1591.24 781.81 1607.25 758.4"/><path class="cls-9" d="M1616.27,712.9c-4.77-16.34-73.51-5.88-73.51-5.88L1539,719.39l-9.3,70.27s-6.81,54.57-7.7,65.74-4.2,135.7-4.2,135.7,14.71,4.64,23.78,1.88c0,0,15.63-69.56,20.46-92.57a211.11,211.11,0,0,0,4.64-40.92s32.21-84.77,37.33-96.16C1617.07,744.48,1621.05,729.23,1616.27,712.9Z"/><path class="cls-28" d="M1613.08,544.26s-13.59,14.7-29.31,10.13c-7.15-2.11-2.4-13.9-.9-16a23.62,23.62,0,0,0,1.57-4.21c1.24-4.14,2.74-9.79,2.74-9.79l5.69-1.74,17.75-5.43s-1,16,.24,23.83A4.31,4.31,0,0,0,1613.08,544.26Z"/><path class="cls-29" d="M1600.66,523.48s-1.7,9.82-16.22,10.67c1.24-4.14,2.74-9.79,2.74-9.79l5.69-1.74Z"/><path class="cls-28" d="M1593.93,470.1c-3.17.66-14.07-5.62-16.54-2.37-2,2.66-17.76,47.92-9.76,57.78,5.83,7.19,25.93,2.27,28.19,1.69,5.88-1.52,17.12-6.87,18.93-12.16l2.83-32.67Z"/><path class="cls-15" d="M1572.5,447.37c3.17-2,11.39-4.92,17.22,5.47,2-7.23,16.1-9.54,21.78,2.55,12-7.2,30.16,4.75,20.53,21.18,10.84,2.92,12.34,12.17,11.66,15.9-1,5.45-4.62,12.41-14.94,12.9,1.9,7.83-10.38,13.75-18.39,17.55l-2-3.29s7.17-9.4,3.74-16c-3.92-5.78-9.1.21-12.1,2.68a.64.64,0,0,1-1-.52c.11-3.07,1.26-4.72-.4-10.21-1.89-6.28,2-11,2.92-12.34,0,0-18.28.15-27.21-8.18S1562.91,453.35,1572.5,447.37Z"/><path class="cls-28" d="M1601.83,504.67s-1.11,1.18-1.74,5.71-.41,10.93,2.19,11.82,7.88-2.62,9.79-7.13c1.67-3.93,3.47-11-1.51-13.53S1601.83,504.67,1601.83,504.67Z"/><path class="cls-29" d="M1606.93,505c-2.19,2-3.62,5.29-2.88,8.28a.46.46,0,0,0,.9-.12c0-2.92.51-5.35,2.62-7.51a.46.46,0,0,0-.64-.65Z"/><path class="cls-29" d="M1607.83,507.45c-1.45.1-3.37,1.09-3.67,2.68-.08.43.45.85.8.46a9,9,0,0,1,1.25-1.43,4.39,4.39,0,0,1,1.75-.78.48.48,0,0,0-.13-.93Z"/><path class="cls-5" d="M1454.27,494.05l4,5.43-7.52,5.62-4.06-5.42a2.64,2.64,0,0,1,.53-3.67l3.33-2.49A2.62,2.62,0,0,1,1454.27,494.05Z"/><path class="cls-5" d="M1466.76,484.69l4.06,5.43-7.52,5.63-4.06-5.43a2.62,2.62,0,0,1,.53-3.66l3.33-2.49A2.61,2.61,0,0,1,1466.76,484.69Z"/><path class="cls-5" d="M1479.26,475.34l4.06,5.43-7.53,5.62-4.06-5.42a2.64,2.64,0,0,1,.53-3.67l3.33-2.49A2.62,2.62,0,0,1,1479.26,475.34Z"/><path class="cls-5" d="M1536.18,490.37l-5.42,4.06-5.63-7.53,5.42-4.06a2.64,2.64,0,0,1,3.67.53l2.49,3.33A2.62,2.62,0,0,1,1536.18,490.37Z"/><path class="cls-5" d="M1545.54,502.86l-5.43,4.06-5.63-7.52,5.43-4.06a2.63,2.63,0,0,1,3.66.53l2.49,3.33A2.61,2.61,0,0,1,1545.54,502.86Z"/><path class="cls-5" d="M1554.89,515.36l-5.43,4.06-5.62-7.53,5.42-4.05a2.63,2.63,0,0,1,3.67.52l2.49,3.33A2.62,2.62,0,0,1,1554.89,515.36Z"/><path class="cls-5" d="M1510.36,466.84l55,73.48a5.15,5.15,0,0,1-1,7.22l-73.48,55a5.17,5.17,0,0,1-7.22-1l-55-73.48a5.18,5.18,0,0,1,1-7.21l73.48-55A5.17,5.17,0,0,1,1510.36,466.84Z"/><path class="cls-21" d="M1508.23,477.54l46.22,61.8a4.32,4.32,0,0,1-.88,6.07l-61.8,46.22a4.34,4.34,0,0,1-6.07-.88L1439.49,529a4.36,4.36,0,0,1,.87-6.07l61.8-46.22A4.34,4.34,0,0,1,1508.23,477.54Z"/><path class="cls-28" d="M1586.27,570.77s-16.6-17.25-20-20.06-9-4.44-12.75-7.88-6.68-11.3-6.53-12.79,3.31-1.08,4.88,1.49,4.7,5.55,5.6,5.89,1.07-4.74.62-6.7l-6.63-8.86a30.24,30.24,0,0,1,7.52,2.5c2.92,1.63,13.23,17.15,15.25,18.83s24.33,18.15,24.33,18.15S1593.1,569.65,1586.27,570.77Z"/><path class="cls-12" d="M1616.74,548.28l-41.44-1.18,2-6.47s7.48-1.69,16.22-3c7.7-1.16,15.72-1.88,18.61-.5,3.57,1.71,4.55,5.21,4.76,7.84A15.17,15.17,0,0,1,1616.74,548.28Z"/><path class="cls-12" d="M1645.28,721.38c-31.5,7-106.56,0-106.56,0-4.51-5.43-1.56-8.58-.46-21.43,1.75-20.52,4-48,5.33-63.88,1.09-13.35,2.07-25.7,2.69-33.78l-9.91,2.64q-.15-3.54-.3-6.4c-.3-6-.52-9.71-.52-10.15,0-.1,0-.24,0-.36,1.32-42.07,34.36-42.23,37.84-42.61.18,0,29.07-3.16,39.67-1.15,4.68.89,22.23,7.91,27,21.86,7,20.3-1.23,96.09,6.37,146.11C1647,715.76,1647.59,719.34,1645.28,721.38Z"/><path class="cls-30" d="M1575.68,594.45a178.53,178.53,0,0,1-32.09,41.62c1.09-13.35,2.07-25.7,2.69-33.78Z"/><path class="cls-28" d="M1522.57,586.52l-14.87,15.92s-8.12-6.52-17.89-13.13c-8-5.45-18.47-16.33-18.47-16.33a59.22,59.22,0,0,1-6.24-12.52c-.79-2.47-.65-7.18-1.77-9-2-3.27-5.35-6.73-6-6.65s-1.62,1.75-.12,4.88c1,2,1.81,4.57,1.72,5.73a.28.28,0,0,1,0,.09c-.15,1.12-1.63,1.58-2.9.93-1.11-.56-2.6-4.1-4.19-7-.66-1.24-2.36-5.72-3.87-5.72,0,0-1.13-.12-1.4.81a5.63,5.63,0,0,0,.26,2.29,7.67,7.67,0,0,0-.82-.53c-.56-.23-1.71-.11-1.71,1.81a23.38,23.38,0,0,0,.77,3.35s-.45.14-.48.15c-.9.14-.75,2.32-.1,4.64h0c-1.4.22-.16,5.58,1.49,8.54,3.74,6.68,11.95,12.49,11.95,12.49s17.84,22.64,25,33.1c6,8.71,17.76,26.57,25.26,26.57s35.39-26.9,35.39-26.9Z"/><path class="cls-12" d="M1588.06,566.8s0,22.8-39.22,55.52c-14.71-9.66-24.77-22.73-29.79-33.29,10.71-13.14,24-28,28.94-33.77C1560,547.28,1588.06,566.8,1588.06,566.8Z"/><path class="cls-18" d="M1541.57,993s3.2,7.19,3.43,12-3.43,10.27-3.43,10.27h-65.14s-4.27-6.41.72-8.5c11.77-4.93,24.49-8.62,24.49-8.62l16.15-7.08S1533.49,994.42,1541.57,993Z"/><path class="cls-18" d="M1660.24,1006.2s-18.53,7.75-25.54,9.27h-30.28s-3.48-4,0-7.78,17.44-8.42,17.44-8.42l8.52-11.28s17.66.21,21.67-3.44a26.1,26.1,0,0,1,6.86,12.77A62.22,62.22,0,0,1,1660.24,1006.2Z"/><path class="cls-25" d="M1135.32,861.17h49.61a15,15,0,0,1,15,15v86.17a0,0,0,0,1,0,0h-79.6a0,0,0,0,1,0,0V876.16A15,15,0,0,1,1135.32,861.17Z"/><path class="cls-18" d="M1102.44,951.2h115.38a10.55,10.55,0,0,1,10.55,10.55v53.72a0,0,0,0,1,0,0H1091.89a0,0,0,0,1,0,0V961.74A10.55,10.55,0,0,1,1102.44,951.2Z"/><rect class="cls-21" x="1038.32" y="608.38" width="7.94" height="32.38" transform="translate(-172.39 656.43) rotate(-32.43)"/><rect class="cls-21" x="1056.98" y="596.2" width="8.94" height="32.38" transform="translate(-162.87 664.84) rotate(-32.44)"/><polygon class="cls-21" points="1060.77 632.01 1046.93 640.81 1050.52 646.47 1059.59 648.66 1067.96 643.34 1076.34 638.02 1078.2 628.88 1074.61 623.22 1060.77 632.01"/><rect class="cls-21" x="1059.27" y="642.88" width="20.2" height="4.68" transform="translate(-179.24 674.18) rotate(-32.43)"/><path class="cls-25" d="M1190.13,782.7l-47.89,30.43a4.77,4.77,0,0,1-6.72-1.69l-82.71-147.59a4.77,4.77,0,0,1,1.6-6.36l32.12-20.41a4.77,4.77,0,0,1,6.44,1.25l98.48,137.57A4.76,4.76,0,0,1,1190.13,782.7Z"/><rect class="cls-18" x="1139.97" y="767.5" width="40.31" height="134.37" rx="7.59" ry="7.59"/><path class="cls-21" d="M1175.54,788.25a15.42,15.42,0,1,1-15.42-15.41A15.41,15.41,0,0,1,1175.54,788.25Z"/><path class="cls-21" d="M1175.54,882.9a15.42,15.42,0,1,1-15.42-15.41A15.41,15.41,0,0,1,1175.54,882.9Z"/><path class="cls-21" d="M1298.64,455.07a2.28,2.28,0,0,1-1.57-2.17V434.69a1.17,1.17,0,0,0-1-1.16,17.56,17.56,0,0,1-15.32-17.4V382.86a17.55,17.55,0,0,1,17.53-17.53H1439.1a17.54,17.54,0,0,1,17.53,17.53v33.27a17.55,17.55,0,0,1-17.53,17.54H1316.5a1.19,1.19,0,0,0-1,.49l-14.35,20.07a2.23,2.23,0,0,1-1.84.94A2.42,2.42,0,0,1,1298.64,455.07Z"/><path class="cls-18" d="M1298.64,455.07a2.28,2.28,0,0,1-1.57-2.17V434.69a1.17,1.17,0,0,0-1-1.16,17.56,17.56,0,0,1-15.32-17.4V382.86a17.55,17.55,0,0,1,17.53-17.53H1439.1a17.54,17.54,0,0,1,17.53,17.53v33.27a17.55,17.55,0,0,1-17.53,17.54H1316.5a1.19,1.19,0,0,0-1,.49l-14.35,20.07a2.23,2.23,0,0,1-1.84.94A2.42,2.42,0,0,1,1298.64,455.07Zm-.39-87.36a15.17,15.17,0,0,0-15.15,15.15v33.27a15.17,15.17,0,0,0,13.24,15,3.54,3.54,0,0,1,3.1,3.52l-.19,18.15,14.35-20.06a3.58,3.58,0,0,1,2.9-1.49h122.6a15.18,15.18,0,0,0,15.16-15.16V382.86a15.17,15.17,0,0,0-15.16-15.15Z"/><path class="cls-25" d="M1307.91,399.45a6.57,6.57,0,1,1,6.57,6.57A6.57,6.57,0,0,1,1307.91,399.45Zm2.38,0a4.19,4.19,0,1,0,4.19-4.19A4.2,4.2,0,0,0,1310.29,399.45Z"/><path class="cls-25" d="M1335,399.45a6.57,6.57,0,1,1,6.57,6.57A6.57,6.57,0,0,1,1335,399.45Zm2.38,0a4.19,4.19,0,1,0,4.19-4.19A4.2,4.2,0,0,0,1337.39,399.45Z"/><path class="cls-25" d="M1362.11,399.45a6.57,6.57,0,1,1,6.57,6.57A6.57,6.57,0,0,1,1362.11,399.45Zm2.37,0a4.2,4.2,0,1,0,4.2-4.19A4.2,4.2,0,0,0,1364.48,399.45Z"/><path class="cls-25" d="M1389.21,399.45a6.57,6.57,0,1,1,6.57,6.57A6.57,6.57,0,0,1,1389.21,399.45Zm2.37,0a4.2,4.2,0,1,0,4.2-4.19A4.2,4.2,0,0,0,1391.58,399.45Z"/><path class="cls-25" d="M1416.31,399.45a6.57,6.57,0,1,1,6.57,6.57A6.57,6.57,0,0,1,1416.31,399.45Zm2.37,0a4.2,4.2,0,1,0,4.2-4.19A4.2,4.2,0,0,0,1418.68,399.45Z"/><path class="cls-25" d="M768,195.8a24.73,24.73,0,0,0-6.42.85,40.1,40.1,0,0,0-48.29-30.47A59.86,59.86,0,0,0,599,169.31c-1-.08-2-.13-3-.13a38.13,38.13,0,0,0,0,76.26H768a24.82,24.82,0,0,0,0-49.64Z"/><path class="cls-18" d="M1359,192.18h-54.22a4.08,4.08,0,0,1-4.08-4.08h0a4.08,4.08,0,0,1,4.08-4.07H1359a4.08,4.08,0,0,1,4.08,4.07h0A4.08,4.08,0,0,1,1359,192.18Z"/><path class="cls-18" d="M1413.26,192.18H1374a4.08,4.08,0,0,1-4.08-4.08h0A4.08,4.08,0,0,1,1374,184h39.24a4.07,4.07,0,0,1,4.07,4.07h0A4.08,4.08,0,0,1,1413.26,192.18Z"/><path class="cls-18" d="M1327.83,210.09h-23a4.08,4.08,0,0,1-4.08-4.07h0a4.08,4.08,0,0,1,4.08-4.08h23a4.08,4.08,0,0,1,4.07,4.08h0A4.07,4.07,0,0,1,1327.83,210.09Z"/><path class="cls-18" d="M1413.26,210.09H1341.5a4.07,4.07,0,0,1-4.07-4.07h0a4.08,4.08,0,0,1,4.07-4.08h71.76a4.08,4.08,0,0,1,4.07,4.08h0A4.07,4.07,0,0,1,1413.26,210.09Z"/><path class="cls-18" d="M1376.26,228h-71.47a4.08,4.08,0,0,1-4.08-4.08h0a4.08,4.08,0,0,1,4.08-4.07h71.47a4.08,4.08,0,0,1,4.08,4.07h0A4.08,4.08,0,0,1,1376.26,228Z"/><path class="cls-18" d="M1413.26,228h-23a4.08,4.08,0,0,1-4.08-4.08h0a4.08,4.08,0,0,1,4.08-4.07h23a4.07,4.07,0,0,1,4.07,4.07h0A4.08,4.08,0,0,1,1413.26,228Z"/><path class="cls-25" d="M1369.16,68.38V70a7.55,7.55,0,0,1-7.56,7.56h-54.33a7.57,7.57,0,0,0-7.57,7.57v73a8.47,8.47,0,0,0,8.47,8.47h109.74a7.57,7.57,0,0,0,7.57-7.57V68.38a7.88,7.88,0,0,0-7.89-7.88h-40.54A7.88,7.88,0,0,0,1369.16,68.38Z"/><path class="cls-3" d="M1413.7,166.55h-99.86l-20.3-78.34a3.61,3.61,0,0,1,3.5-4.51h92.47a8.19,8.19,0,0,1,7.93,6.14l19,73.21A2.79,2.79,0,0,1,1413.7,166.55Z"/><path class="cls-21" d="M1410.32,166.55H1307.51l-18.63-71.93a3.31,3.31,0,0,1,3.21-4.15h92.7a7.52,7.52,0,0,1,7.28,5.64Z"/><path class="cls-25" d="M1407.14,159.15l-.6-2.31h0l-12.51-48a10.32,10.32,0,0,0-10-7.72h-95.25a4.93,4.93,0,0,0-4.76,6.17l13.2,50.67a11.54,11.54,0,0,0,11.17,8.64h108.91C1410.8,166.55,1408.16,162,1407.14,159.15Z"/><path class="cls-21" d="M466.1,402.94h72.54a7.89,7.89,0,0,1,7.89,7.89v37.64a7.89,7.89,0,0,1-7.89,7.89h-4.76V467.8a2.45,2.45,0,0,1-4.18,1.73l-13.17-13.17H466.1a7.89,7.89,0,0,1-7.89-7.89V410.83A7.89,7.89,0,0,1,466.1,402.94Z"/><path class="cls-31" d="M466.1,402.94h72.54a7.89,7.89,0,0,1,7.89,7.89v37.64a7.89,7.89,0,0,1-7.89,7.89h-4.76V467.8a2.45,2.45,0,0,1-4.18,1.73l-13.17-13.17H466.1a7.89,7.89,0,0,1-7.89-7.89V410.83A7.89,7.89,0,0,1,466.1,402.94Z"/><path class="cls-25" d="M523.24,430.15a5,5,0,1,0,5-5A5,5,0,0,0,523.24,430.15Z"/><path class="cls-25" d="M497.35,430.15a5,5,0,1,0,5-5A5,5,0,0,0,497.35,430.15Z"/><path class="cls-25" d="M471.46,430.15a5,5,0,1,0,5-5A5,5,0,0,0,471.46,430.15Z"/><g class="cls-32"><path class="cls-33" d="M341.45,607.46a81.71,81.71,0,1,0,81.72,81.69A81.69,81.69,0,0,0,341.45,607.46Zm0,144.75a63,63,0,1,1,63-63.06A63,63,0,0,1,341.45,752.21Z"/><path class="cls-18" d="M341.49,607.46l.07,18.68A63,63,0,1,1,291.85,728l-14.77,11.44a81.7,81.7,0,1,0,64.41-132Z"/></g><path class="cls-25" d="M323.47,672.24a13.73,13.73,0,0,1,2.24.18,7.23,7.23,0,0,1,2.09.69l-1,3.43a7,7,0,0,0-1.5-.61,6.3,6.3,0,0,0-1.75-.22,5.27,5.27,0,0,0-2.22.43,4.67,4.67,0,0,0-1.63,1.21,6.08,6.08,0,0,0-1.05,1.83,9,9,0,0,0-.48,2.27,5.8,5.8,0,0,1,2.11-1.24,7.71,7.71,0,0,1,2.55-.42,7.59,7.59,0,0,1,2.78.49,6,6,0,0,1,2.18,1.41,6.24,6.24,0,0,1,1.43,2.24,9,9,0,0,1-.06,6.08,7.16,7.16,0,0,1-1.57,2.44,6.75,6.75,0,0,1-2.43,1.59,9,9,0,0,1-6.2,0,7.26,7.26,0,0,1-2.74-1.77,8.92,8.92,0,0,1-2-3.22,13.61,13.61,0,0,1-.76-4.87,15.33,15.33,0,0,1,.87-5.46A10.84,10.84,0,0,1,316.6,675a8.8,8.8,0,0,1,3.2-2.11A10.28,10.28,0,0,1,323.47,672.24Zm-5.31,14.23a6.63,6.63,0,0,0,.25,1.88,4.68,4.68,0,0,0,.74,1.52,3.35,3.35,0,0,0,2.76,1.37,2.67,2.67,0,0,0,1.36-.34,3.59,3.59,0,0,0,1-.92,4.4,4.4,0,0,0,.65-1.34,6,6,0,0,0,.21-1.59,4.05,4.05,0,0,0-.9-2.89,3.31,3.31,0,0,0-2.49-.94,3.76,3.76,0,0,0-1.86.44,3.61,3.61,0,0,0-1.21,1A2.72,2.72,0,0,0,318.16,686.47Z"/><path class="cls-25" d="M340.77,672.24a9,9,0,0,1,3.14.49,7,7,0,0,1,2.22,1.26,5,5,0,0,1,1.32,1.79,5.18,5.18,0,0,1,.43,2.06,4.5,4.5,0,0,1-1,3,6.9,6.9,0,0,1-2.8,2,10.32,10.32,0,0,1,1.72.79,6.27,6.27,0,0,1,1.41,1.12,5.32,5.32,0,0,1,.94,1.48,5.08,5.08,0,0,1,.34,1.88,6.07,6.07,0,0,1-.58,2.69,5.66,5.66,0,0,1-1.64,2.06,7.7,7.7,0,0,1-2.53,1.32,11.47,11.47,0,0,1-6.43,0,7.34,7.34,0,0,1-2.44-1.27,5.59,5.59,0,0,1-2.13-4.46,4.59,4.59,0,0,1,1.19-3.32,9.09,9.09,0,0,1,3-2,6.26,6.26,0,0,1-2.51-1.91,4.61,4.61,0,0,1-1-2.93,5.38,5.38,0,0,1,.47-2.2,5.53,5.53,0,0,1,1.39-1.93,6.87,6.87,0,0,1,2.31-1.37A9,9,0,0,1,340.77,672.24Zm-.44,12.68a5.48,5.48,0,0,0-2.18,1.26,2.9,2.9,0,0,0-.85,2.17,2.72,2.72,0,0,0,.87,2.08,3.49,3.49,0,0,0,2.49.81,3.19,3.19,0,0,0,2.31-.87,2.83,2.83,0,0,0-.11-4.24A6,6,0,0,0,340.33,684.92ZM337.8,678a2.71,2.71,0,0,0,.89,2.08,5.28,5.28,0,0,0,2.15,1.17A4.69,4.69,0,0,0,342.7,680a2.75,2.75,0,0,0,.78-1.9,2.38,2.38,0,0,0-.8-1.93,3.08,3.08,0,0,0-2.06-.67,2.77,2.77,0,0,0-2.08.76A2.41,2.41,0,0,0,337.8,678Z"/><path class="cls-25" d="M355.46,685.27a3.83,3.83,0,0,1-.18,1.18,2.83,2.83,0,0,1-.53,1,2.6,2.6,0,0,1-.87.67,2.71,2.71,0,0,1-1.2.25,2.58,2.58,0,0,1-1.17-.25,2.44,2.44,0,0,1-.85-.67,3,3,0,0,1-.53-1,3.83,3.83,0,0,1-.18-1.18,3.5,3.5,0,0,1,.19-1.17,2.86,2.86,0,0,1,.54-1,2.52,2.52,0,0,1,.88-.66,2.84,2.84,0,0,1,2.33,0,2.4,2.4,0,0,1,.87.66,2.67,2.67,0,0,1,.52,1A3.77,3.77,0,0,1,355.46,685.27Zm-1.67,0a3.28,3.28,0,0,0-.06-.63,1.56,1.56,0,0,0-.18-.54.94.94,0,0,0-.33-.38.8.8,0,0,0-.5-.15.85.85,0,0,0-.82.51,2.78,2.78,0,0,0-.24,1.19,3.2,3.2,0,0,0,.23,1.27.8.8,0,0,0,.79.53.89.89,0,0,0,.84-.51A2.74,2.74,0,0,0,353.79,685.27Zm-2,9,7-12h1.37l-7,12Zm10.12-2.91a3.9,3.9,0,0,1-.18,1.19,3,3,0,0,1-.53,1,2.54,2.54,0,0,1-.87.67,2.87,2.87,0,0,1-1.21.25,2.72,2.72,0,0,1-1.17-.25,2.54,2.54,0,0,1-.87-.67,3,3,0,0,1-.53-1,3.67,3.67,0,0,1,0-2.36,2.88,2.88,0,0,1,.55-1,2.79,2.79,0,0,1,.88-.66,2.84,2.84,0,0,1,1.19-.25,2.55,2.55,0,0,1,2,.91,2.86,2.86,0,0,1,.54,1A3.87,3.87,0,0,1,361.94,691.33Zm-1.72,0a4.87,4.87,0,0,0,0-.66,2.07,2.07,0,0,0-.17-.58,1.11,1.11,0,0,0-.32-.41.76.76,0,0,0-.48-.15.89.89,0,0,0-.84.54,2.73,2.73,0,0,0-.27,1.26,4,4,0,0,0,.06.71,2,2,0,0,0,.17.58,1.27,1.27,0,0,0,.33.39.88.88,0,0,0,.49.14.84.84,0,0,0,.82-.52A2.93,2.93,0,0,0,360.22,691.33Z"/><path class="cls-25" d="M313.16,704.54h1.92v7.3h3.55v1.51h-5.47Z"/><path class="cls-25" d="M326.08,710a3.86,3.86,0,0,1-.27,1.48,3.14,3.14,0,0,1-1.83,1.81,3.78,3.78,0,0,1-1.36.25,4,4,0,0,1-1.35-.23,3.05,3.05,0,0,1-1.08-.66,2.91,2.91,0,0,1-.71-1.07,3.81,3.81,0,0,1-.26-1.44,4,4,0,0,1,.27-1.52,3,3,0,0,1,.73-1.12,3.06,3.06,0,0,1,1.1-.69,3.78,3.78,0,0,1,1.36-.24,4,4,0,0,1,1.35.22,3.14,3.14,0,0,1,1.07.65,2.89,2.89,0,0,1,.72,1.07A4,4,0,0,1,326.08,710Zm-1.92.07a3.1,3.1,0,0,0-.13-1,1.86,1.86,0,0,0-.33-.66,1.25,1.25,0,0,0-.49-.37,1.47,1.47,0,0,0-.58-.12,1.54,1.54,0,0,0-.56.1,1.29,1.29,0,0,0-.47.35,2,2,0,0,0-.34.65,3.78,3.78,0,0,0-.12,1,3.3,3.3,0,0,0,.12.94,1.82,1.82,0,0,0,.35.65,1.34,1.34,0,0,0,1.05.5,1.5,1.5,0,0,0,.56-.1,1.17,1.17,0,0,0,.48-.36A1.73,1.73,0,0,0,324,711,3.06,3.06,0,0,0,324.16,710Z"/><path class="cls-25" d="M327.52,707.27a4.91,4.91,0,0,1,1.27-.54,5.15,5.15,0,0,1,1.43-.19,3.81,3.81,0,0,1,1.1.14,2.22,2.22,0,0,1,.85.44,2,2,0,0,1,.55.77,3.12,3.12,0,0,1,.19,1.12v4.34h-1.45l-.16-.68h-.06a2.21,2.21,0,0,1-.82.61,2.74,2.74,0,0,1-1.15.23,2.86,2.86,0,0,1-1-.16,2.19,2.19,0,0,1-.71-.44,1.71,1.71,0,0,1-.44-.65,2.16,2.16,0,0,1-.15-.81,1.87,1.87,0,0,1,.25-1,2,2,0,0,1,.67-.68,3.61,3.61,0,0,1,1-.39,6.17,6.17,0,0,1,1.25-.12H331v-.41a.78.78,0,0,0-.29-.68,1.33,1.33,0,0,0-.8-.22,3,3,0,0,0-.83.13,4.61,4.61,0,0,0-.95.41Zm3.52,3.16h-.6a2.18,2.18,0,0,0-1.19.29.77.77,0,0,0-.33.62.69.69,0,0,0,.28.65,1.23,1.23,0,0,0,.66.18,1.27,1.27,0,0,0,.69-.21,1.52,1.52,0,0,0,.49-.49Z"/><path class="cls-25" d="M338.8,703.36h1.86v10h-1.33l-.2-.73h-.07a2.22,2.22,0,0,1-.72.62,2.42,2.42,0,0,1-1.22.27,2.93,2.93,0,0,1-1.18-.24,2.8,2.8,0,0,1-.95-.69,3.34,3.34,0,0,1-.64-1.09,4.45,4.45,0,0,1-.23-1.47,4.64,4.64,0,0,1,.21-1.44,3.24,3.24,0,0,1,.6-1.1,2.84,2.84,0,0,1,1-.7,3.38,3.38,0,0,1,1.32-.24,2.73,2.73,0,0,1,.9.14,1.9,1.9,0,0,1,.68.36Zm0,5.07a1.53,1.53,0,0,0-.48-.38,1.4,1.4,0,0,0-.64-.15,1.69,1.69,0,0,0-.64.11,1.33,1.33,0,0,0-.53.35,1.71,1.71,0,0,0-.37.65,2.76,2.76,0,0,0-.14,1,3.47,3.47,0,0,0,.12,1,2.21,2.21,0,0,0,.34.67,1.45,1.45,0,0,0,.5.39,1.53,1.53,0,0,0,.6.12,1.36,1.36,0,0,0,.77-.21,1.61,1.61,0,0,0,.47-.51Z"/><path class="cls-25" d="M343.46,705.25a1,1,0,0,1-.75-.27,1,1,0,0,1,0-1.36,1,1,0,0,1,.75-.27,1,1,0,0,1,.73.27.93.93,0,0,1,.27.68,1,1,0,0,1-.26.68A1,1,0,0,1,343.46,705.25Zm-.94,8.1v-6.67h1.86v6.67Z"/><path class="cls-25" d="M348.09,713.35h-1.86v-6.67h1.45l.23.85a3.21,3.21,0,0,1,1-.73,2.76,2.76,0,0,1,1.22-.26,2.27,2.27,0,0,1,1.7.6,2.4,2.4,0,0,1,.59,1.75v4.46h-1.87v-4.27a1.21,1.21,0,0,0-.25-.81.91.91,0,0,0-.74-.31,1.62,1.62,0,0,0-.76.21,2.38,2.38,0,0,0-.72.55Z"/><path class="cls-25" d="M354,708.94a2.18,2.18,0,0,1,.22-1,2.11,2.11,0,0,1,.6-.76,2.63,2.63,0,0,1,.91-.48,3.51,3.51,0,0,1,1.15-.17l.52,0a3.65,3.65,0,0,1,.52.11h2.85v1.17h-.6l-.87-.12a1.85,1.85,0,0,1,.3.56,2,2,0,0,1,.12.67,2.12,2.12,0,0,1-.76,1.71,3.1,3.1,0,0,1-2.09.65,3.7,3.7,0,0,1-.62-.05.47.47,0,0,0-.35.46.39.39,0,0,0,.16.34,1,1,0,0,0,.54.11h1.5a3,3,0,0,1,1.77.48,1.79,1.79,0,0,1,.66,1.55,1.94,1.94,0,0,1-.26,1,2.35,2.35,0,0,1-.73.78,3.68,3.68,0,0,1-1.15.51,5.74,5.74,0,0,1-1.49.18,4.64,4.64,0,0,1-2.42-.54,1.7,1.7,0,0,1-.89-1.54,1.2,1.2,0,0,1,.31-.81,2.08,2.08,0,0,1,.85-.54,1.79,1.79,0,0,1-.39-.39,1.06,1.06,0,0,1-.19-.65,1.18,1.18,0,0,1,.28-.8,1.82,1.82,0,0,1,.71-.53,2.19,2.19,0,0,1-.41-.29,2.41,2.41,0,0,1-.37-.41,1.9,1.9,0,0,1-.28-.55A2.09,2.09,0,0,1,354,708.94Zm1.79,4.64a1,1,0,0,0-.35.29.76.76,0,0,0-.14.46.81.81,0,0,0,.37.68,2.25,2.25,0,0,0,1.28.27,2.31,2.31,0,0,0,1.33-.3.88.88,0,0,0,.42-.7.57.57,0,0,0-.27-.55,1.71,1.71,0,0,0-.82-.15Zm2.11-4.65a1.09,1.09,0,0,0-.29-.82,1.13,1.13,0,0,0-1.49,0,1.07,1.07,0,0,0-.29.81,1.1,1.1,0,0,0,.3.84,1,1,0,0,0,.74.28,1.09,1.09,0,0,0,.75-.28A1.13,1.13,0,0,0,357.88,708.93Z"/><path class="cls-34" d="M319,879.8h11.82A13.31,13.31,0,0,0,344,868.63c1.9-11.77,5.6-28.63,11.16-28.64,13.08,0,8.32,85.82,18.27,85.82s8-69,17.26-69.45c8.61-.41,5.75,46.45,11.5,47.33s3.6-65.2,13.93-63c9.51,2,6.14,58.84,15.54,58.86,4.08,0,6.4-5.92,7.66-11.26A11,11,0,0,1,450,879.92h13.21"/><rect class="cls-18" x="740.36" y="814.22" width="201.73" height="61.1" rx="4.76" ry="4.76"/><path class="cls-21" d="M896.3,845.27h0a2.77,2.77,0,0,1-2.77-2.77v-22a2.77,2.77,0,0,1,2.77-2.77h0a2.77,2.77,0,0,1,2.76,2.77v22A2.77,2.77,0,0,1,896.3,845.27Z"/><path class="cls-21" d="M906.8,861.31h0a2.77,2.77,0,0,1-2.76-2.77V836.09a2.76,2.76,0,0,1,2.76-2.76h0a2.76,2.76,0,0,1,2.77,2.76v22.45A2.77,2.77,0,0,1,906.8,861.31Z"/><path class="cls-21" d="M917.31,848.81h0a2.76,2.76,0,0,1-2.76-2.77v-6.3a2.75,2.75,0,0,1,2.76-2.76h0a2.76,2.76,0,0,1,2.77,2.76V846A2.77,2.77,0,0,1,917.31,848.81Z"/><path class="cls-21" d="M812.24,855.67h0a2.77,2.77,0,0,1-2.76-2.77v-13a2.76,2.76,0,0,1,2.76-2.76h0a2.76,2.76,0,0,1,2.77,2.76v13A2.77,2.77,0,0,1,812.24,855.67Z"/><path class="cls-21" d="M822.75,871.81h0a2.76,2.76,0,0,1-2.76-2.76V832a2.76,2.76,0,0,1,2.76-2.77h0a2.77,2.77,0,0,1,2.77,2.77v37A2.77,2.77,0,0,1,822.75,871.81Z"/><path class="cls-21" d="M833.26,861.31h0a2.77,2.77,0,0,1-2.77-2.77v-31a2.77,2.77,0,0,1,2.77-2.77h0a2.77,2.77,0,0,1,2.76,2.77v31A2.77,2.77,0,0,1,833.26,861.31Z"/><path class="cls-21" d="M843.76,861.31h0a2.77,2.77,0,0,1-2.76-2.77v-5.75a2.76,2.76,0,0,1,2.76-2.76h0a2.76,2.76,0,0,1,2.77,2.76v5.75A2.77,2.77,0,0,1,843.76,861.31Z"/><path class="cls-21" d="M854.27,865.29h0a2.76,2.76,0,0,1-2.76-2.77V832a2.76,2.76,0,0,1,2.76-2.77h0A2.77,2.77,0,0,1,857,832v30.52A2.77,2.77,0,0,1,854.27,865.29Z"/><path class="cls-21" d="M864.78,861.31h0a2.77,2.77,0,0,1-2.77-2.77V828a2.77,2.77,0,0,1,2.77-2.77h0a2.77,2.77,0,0,1,2.76,2.77v30.52A2.77,2.77,0,0,1,864.78,861.31Z"/><path class="cls-21" d="M875.28,861.31h0a2.77,2.77,0,0,1-2.76-2.77V841.29a2.77,2.77,0,0,1,2.76-2.77h0a2.77,2.77,0,0,1,2.77,2.77v17.25A2.77,2.77,0,0,1,875.28,861.31Z"/><path class="cls-21" d="M885.79,870.26h0A2.75,2.75,0,0,1,883,867.5v-31a2.76,2.76,0,0,1,2.76-2.76h0a2.77,2.77,0,0,1,2.77,2.76v31A2.76,2.76,0,0,1,885.79,870.26Z"/><path class="cls-21" d="M765.9,830.22l22.24,12.84a2,2,0,0,1,0,3.43L765.9,859.33a2,2,0,0,1-3-1.72V831.93A2,2,0,0,1,765.9,830.22Z"/><path class="cls-25" d="M1249.06,530.87h2.2v14.8h-2.73V533.49l-2.72,1.3-.63-2.15Z"/><path class="cls-25" d="M1261.88,530.62a6.44,6.44,0,0,1,2.4.43,5,5,0,0,1,1.9,1.35,6.34,6.34,0,0,1,1.25,2.37,11.74,11.74,0,0,1,.45,3.47,11,11,0,0,1-.48,3.45,7,7,0,0,1-1.32,2.39,5,5,0,0,1-1.91,1.37,5.91,5.91,0,0,1-2.29.44,6.17,6.17,0,0,1-2.37-.44,4.73,4.73,0,0,1-1.9-1.36,6.5,6.5,0,0,1-1.25-2.37,11.86,11.86,0,0,1-.45-3.48,10.28,10.28,0,0,1,.49-3.37,7,7,0,0,1,1.31-2.38,5.31,5.31,0,0,1,1.91-1.41A5.71,5.71,0,0,1,1261.88,530.62Zm-3.12,7.62A12.2,12.2,0,0,0,1259,541a5.12,5.12,0,0,0,.7,1.7,2.46,2.46,0,0,0,1,.88,3.09,3.09,0,0,0,1.18.25,2.76,2.76,0,0,0,1.19-.27,2.38,2.38,0,0,0,1-.9,5.07,5.07,0,0,0,.68-1.71,12.52,12.52,0,0,0,.25-2.7,12,12,0,0,0-.26-2.72,5.35,5.35,0,0,0-.69-1.7,2.31,2.31,0,0,0-1-.87,3.15,3.15,0,0,0-1.19-.23,2.83,2.83,0,0,0-1.17.25,2.25,2.25,0,0,0-1,.88,5.51,5.51,0,0,0-.69,1.7A11.81,11.81,0,0,0,1258.76,538.24Z"/><path class="cls-25" d="M1274.56,530.87h2.2v14.8H1274V533.49l-2.72,1.3-.63-2.15Z"/><path class="cls-25" d="M1287.38,530.62a6.44,6.44,0,0,1,2.4.43,5.09,5.09,0,0,1,1.9,1.35,6.49,6.49,0,0,1,1.25,2.37,11.74,11.74,0,0,1,.45,3.47,10.67,10.67,0,0,1-.49,3.45,6.83,6.83,0,0,1-1.31,2.39,5.08,5.08,0,0,1-1.91,1.37,6,6,0,0,1-2.29.44,6.17,6.17,0,0,1-2.37-.44,4.73,4.73,0,0,1-1.9-1.36,6.5,6.5,0,0,1-1.25-2.37,11.86,11.86,0,0,1-.45-3.48,10.57,10.57,0,0,1,.48-3.37,7.15,7.15,0,0,1,1.32-2.38,5.22,5.22,0,0,1,1.91-1.41A5.67,5.67,0,0,1,1287.38,530.62Zm-3.12,7.62a11.64,11.64,0,0,0,.26,2.75,4.92,4.92,0,0,0,.7,1.7,2.46,2.46,0,0,0,1,.88,3.09,3.09,0,0,0,1.18.25,2.68,2.68,0,0,0,1.18-.27,2.34,2.34,0,0,0,1-.9,5.07,5.07,0,0,0,.68-1.71,12.52,12.52,0,0,0,.25-2.7,11.37,11.37,0,0,0-.27-2.72,5.13,5.13,0,0,0-.68-1.7,2.37,2.37,0,0,0-1-.87,3.19,3.19,0,0,0-1.19-.23,2.83,2.83,0,0,0-1.17.25,2.25,2.25,0,0,0-1,.88,5.28,5.28,0,0,0-.69,1.7A11.27,11.27,0,0,0,1284.26,538.24Z"/><path class="cls-25" d="M1302.63,530.62a6.44,6.44,0,0,1,2.4.43,5.09,5.09,0,0,1,1.9,1.35,6.49,6.49,0,0,1,1.25,2.37,11.74,11.74,0,0,1,.45,3.47,10.67,10.67,0,0,1-.49,3.45,6.83,6.83,0,0,1-1.31,2.39,5.08,5.08,0,0,1-1.91,1.37,6,6,0,0,1-2.29.44,6.17,6.17,0,0,1-2.37-.44,4.73,4.73,0,0,1-1.9-1.36,6.5,6.5,0,0,1-1.25-2.37,11.86,11.86,0,0,1-.45-3.48,10.57,10.57,0,0,1,.48-3.37,7.15,7.15,0,0,1,1.32-2.38,5.22,5.22,0,0,1,1.91-1.41A5.67,5.67,0,0,1,1302.63,530.62Zm-3.12,7.62a11.64,11.64,0,0,0,.26,2.75,4.92,4.92,0,0,0,.7,1.7,2.46,2.46,0,0,0,1,.88,3.09,3.09,0,0,0,1.18.25,2.68,2.68,0,0,0,1.18-.27,2.34,2.34,0,0,0,1-.9,5.07,5.07,0,0,0,.68-1.71,12.52,12.52,0,0,0,.25-2.7,11.37,11.37,0,0,0-.27-2.72,5.13,5.13,0,0,0-.68-1.7,2.37,2.37,0,0,0-1-.87,3.19,3.19,0,0,0-1.19-.23,2.83,2.83,0,0,0-1.17.25,2.25,2.25,0,0,0-1,.88,5.28,5.28,0,0,0-.69,1.7A11.27,11.27,0,0,0,1299.51,538.24Z"/><path class="cls-25" d="M1315.31,530.87h2.2v14.8h-2.73V533.49l-2.72,1.3-.63-2.15Z"/><path class="cls-25" d="M1328.13,530.62a6.44,6.44,0,0,1,2.4.43,5.09,5.09,0,0,1,1.9,1.35,6.49,6.49,0,0,1,1.25,2.37,11.74,11.74,0,0,1,.45,3.47,10.67,10.67,0,0,1-.49,3.45,6.83,6.83,0,0,1-1.31,2.39,5.08,5.08,0,0,1-1.91,1.37,6,6,0,0,1-2.29.44,6.17,6.17,0,0,1-2.37-.44,4.73,4.73,0,0,1-1.9-1.36,6.5,6.5,0,0,1-1.25-2.37,11.86,11.86,0,0,1-.45-3.48,10.57,10.57,0,0,1,.48-3.37,7.15,7.15,0,0,1,1.32-2.38,5.22,5.22,0,0,1,1.91-1.41A5.67,5.67,0,0,1,1328.13,530.62Zm-3.12,7.62a11.64,11.64,0,0,0,.26,2.75,4.92,4.92,0,0,0,.7,1.7,2.46,2.46,0,0,0,1,.88,3,3,0,0,0,1.18.25,2.68,2.68,0,0,0,1.18-.27,2.34,2.34,0,0,0,1-.9,5.29,5.29,0,0,0,.68-1.71,12.52,12.52,0,0,0,.25-2.7,11.37,11.37,0,0,0-.27-2.72,5.13,5.13,0,0,0-.68-1.7,2.37,2.37,0,0,0-1-.87,3.19,3.19,0,0,0-1.19-.23,2.83,2.83,0,0,0-1.17.25,2.25,2.25,0,0,0-1,.88,5.28,5.28,0,0,0-.69,1.7A11.27,11.27,0,0,0,1325,538.24Z"/><path class="cls-25" d="M1340.81,530.87h2.2v14.8h-2.73V533.49l-2.72,1.3-.63-2.15Z"/><path class="cls-25" d="M1250.88,510.38a6.44,6.44,0,0,1,2.4.43,5,5,0,0,1,1.9,1.35,6.34,6.34,0,0,1,1.25,2.37,11.74,11.74,0,0,1,.45,3.47,11,11,0,0,1-.48,3.45,7,7,0,0,1-1.32,2.39,5,5,0,0,1-1.91,1.37,5.91,5.91,0,0,1-2.29.44,6.17,6.17,0,0,1-2.37-.44,4.73,4.73,0,0,1-1.9-1.36,6.42,6.42,0,0,1-1.25-2.37,11.86,11.86,0,0,1-.45-3.48,10.28,10.28,0,0,1,.49-3.37,7.06,7.06,0,0,1,1.31-2.38,5.31,5.31,0,0,1,1.91-1.41A5.71,5.71,0,0,1,1250.88,510.38Zm-3.12,7.62a12.14,12.14,0,0,0,.26,2.75,5.12,5.12,0,0,0,.7,1.7,2.46,2.46,0,0,0,1,.88,3.09,3.09,0,0,0,1.18.25,2.76,2.76,0,0,0,1.19-.27,2.38,2.38,0,0,0,1-.9,5.07,5.07,0,0,0,.68-1.71,12.52,12.52,0,0,0,.25-2.7,12,12,0,0,0-.26-2.72,5.35,5.35,0,0,0-.69-1.7,2.31,2.31,0,0,0-1-.87,3.15,3.15,0,0,0-1.19-.23,2.83,2.83,0,0,0-1.17.25,2.25,2.25,0,0,0-1,.88,5.51,5.51,0,0,0-.69,1.7A11.81,11.81,0,0,0,1247.76,518Z"/><path class="cls-25" d="M1263.56,510.63h2.2v14.8H1263V513.25l-2.72,1.3-.63-2.15Z"/><path class="cls-25" d="M1276.38,510.38a6.44,6.44,0,0,1,2.4.43,5,5,0,0,1,1.9,1.35,6.34,6.34,0,0,1,1.25,2.37,11.74,11.74,0,0,1,.45,3.47,11,11,0,0,1-.48,3.45,7,7,0,0,1-1.32,2.39,5,5,0,0,1-1.91,1.37,5.91,5.91,0,0,1-2.29.44,6.17,6.17,0,0,1-2.37-.44,4.73,4.73,0,0,1-1.9-1.36,6.42,6.42,0,0,1-1.25-2.37,11.86,11.86,0,0,1-.45-3.48,10.28,10.28,0,0,1,.49-3.37,7.06,7.06,0,0,1,1.31-2.38,5.31,5.31,0,0,1,1.91-1.41A5.71,5.71,0,0,1,1276.38,510.38Zm-3.12,7.62a12.14,12.14,0,0,0,.26,2.75,5.12,5.12,0,0,0,.7,1.7,2.46,2.46,0,0,0,1,.88,3.09,3.09,0,0,0,1.18.25,2.76,2.76,0,0,0,1.19-.27,2.38,2.38,0,0,0,1-.9,5.07,5.07,0,0,0,.68-1.71,12.52,12.52,0,0,0,.25-2.7,12,12,0,0,0-.26-2.72,5.35,5.35,0,0,0-.69-1.7,2.31,2.31,0,0,0-1-.87,3.15,3.15,0,0,0-1.19-.23,2.83,2.83,0,0,0-1.17.25,2.25,2.25,0,0,0-1,.88,5.51,5.51,0,0,0-.69,1.7A11.81,11.81,0,0,0,1273.26,518Z"/><path class="cls-25" d="M1289.06,510.63h2.2v14.8h-2.73V513.25l-2.72,1.3-.63-2.15Z"/><path class="cls-25" d="M1299.56,510.63h2.2v14.8H1299V513.25l-2.72,1.3-.63-2.15Z"/><path class="cls-25" d="M1312.38,510.38a6.44,6.44,0,0,1,2.4.43,5.09,5.09,0,0,1,1.9,1.35,6.49,6.49,0,0,1,1.25,2.37,11.74,11.74,0,0,1,.45,3.47,10.67,10.67,0,0,1-.49,3.45,6.83,6.83,0,0,1-1.31,2.39,5.08,5.08,0,0,1-1.91,1.37,6,6,0,0,1-2.29.44,6.17,6.17,0,0,1-2.37-.44,4.73,4.73,0,0,1-1.9-1.36,6.42,6.42,0,0,1-1.25-2.37,11.86,11.86,0,0,1-.45-3.48,10.57,10.57,0,0,1,.48-3.37,7.25,7.25,0,0,1,1.32-2.38,5.22,5.22,0,0,1,1.91-1.41A5.67,5.67,0,0,1,1312.38,510.38Zm-3.12,7.62a11.59,11.59,0,0,0,.26,2.75,4.92,4.92,0,0,0,.7,1.7,2.46,2.46,0,0,0,1,.88,3.09,3.09,0,0,0,1.18.25,2.68,2.68,0,0,0,1.18-.27,2.34,2.34,0,0,0,1-.9,5.07,5.07,0,0,0,.68-1.71,12.52,12.52,0,0,0,.25-2.7,11.37,11.37,0,0,0-.27-2.72,5.13,5.13,0,0,0-.68-1.7,2.37,2.37,0,0,0-1-.87,3.19,3.19,0,0,0-1.19-.23,2.83,2.83,0,0,0-1.17.25,2.25,2.25,0,0,0-1,.88,5.28,5.28,0,0,0-.69,1.7A11.27,11.27,0,0,0,1309.26,518Z"/><path class="cls-25" d="M1325.06,510.63h2.2v14.8h-2.73V513.25l-2.72,1.3-.63-2.15Z"/><path class="cls-25" d="M1337.88,510.38a6.44,6.44,0,0,1,2.4.43,5.09,5.09,0,0,1,1.9,1.35,6.49,6.49,0,0,1,1.25,2.37,11.74,11.74,0,0,1,.45,3.47,10.67,10.67,0,0,1-.49,3.45,6.83,6.83,0,0,1-1.31,2.39,5.08,5.08,0,0,1-1.91,1.37,6,6,0,0,1-2.29.44,6.17,6.17,0,0,1-2.37-.44,4.73,4.73,0,0,1-1.9-1.36,6.42,6.42,0,0,1-1.25-2.37,11.86,11.86,0,0,1-.45-3.48,10.57,10.57,0,0,1,.48-3.37,7.25,7.25,0,0,1,1.32-2.38,5.22,5.22,0,0,1,1.91-1.41A5.67,5.67,0,0,1,1337.88,510.38Zm-3.12,7.62a11.59,11.59,0,0,0,.26,2.75,4.92,4.92,0,0,0,.7,1.7,2.46,2.46,0,0,0,1,.88,3.09,3.09,0,0,0,1.18.25,2.68,2.68,0,0,0,1.18-.27,2.34,2.34,0,0,0,1-.9,5.07,5.07,0,0,0,.68-1.71,12.52,12.52,0,0,0,.25-2.7,11.37,11.37,0,0,0-.27-2.72,5.13,5.13,0,0,0-.68-1.7,2.37,2.37,0,0,0-1-.87,3.19,3.19,0,0,0-1.19-.23,2.83,2.83,0,0,0-1.17.25,2.25,2.25,0,0,0-1,.88,5.28,5.28,0,0,0-.69,1.7A11.27,11.27,0,0,0,1334.76,518Z"/><path class="cls-25" d="M855.19,209.21H857v11.85h-2.18v-9.75l-2.19,1-.5-1.72Z"/><path class="cls-25" d="M865.46,209a5,5,0,0,1,1.92.35,3.89,3.89,0,0,1,1.53,1.08,5.29,5.29,0,0,1,1,1.89,9.5,9.5,0,0,1,.36,2.79,8.75,8.75,0,0,1-.39,2.76,5.54,5.54,0,0,1-1,1.91,4.1,4.1,0,0,1-1.54,1.1,4.73,4.73,0,0,1-1.83.35,5,5,0,0,1-1.9-.35A3.72,3.72,0,0,1,862,219.8a5.2,5.2,0,0,1-1-1.9,9.48,9.48,0,0,1-.36-2.78,8.38,8.38,0,0,1,.39-2.71,5.7,5.7,0,0,1,1.06-1.9,4.07,4.07,0,0,1,1.53-1.13A4.51,4.51,0,0,1,865.46,209Zm-2.5,6.11a9.58,9.58,0,0,0,.21,2.2,3.92,3.92,0,0,0,.56,1.36,1.91,1.91,0,0,0,.81.7,2.28,2.28,0,0,0,1.89,0,1.92,1.92,0,0,0,.79-.72,4.08,4.08,0,0,0,.54-1.37,11.64,11.64,0,0,0,0-4.35,4.13,4.13,0,0,0-.55-1.36,1.84,1.84,0,0,0-.79-.69,2.37,2.37,0,0,0-.95-.19,2.41,2.41,0,0,0-.94.2,1.8,1.8,0,0,0-.8.71,4.32,4.32,0,0,0-.55,1.36A9.27,9.27,0,0,0,863,215.12Z"/><path class="cls-25" d="M875.62,209.21h1.76v11.85h-2.19v-9.75l-2.18,1-.5-1.72Z"/><path class="cls-25" d="M885.89,209a5,5,0,0,1,1.92.35,3.79,3.79,0,0,1,1.52,1.08,5.15,5.15,0,0,1,1,1.89,9.5,9.5,0,0,1,.36,2.79,8.75,8.75,0,0,1-.39,2.76,5.56,5.56,0,0,1-1.06,1.91,4,4,0,0,1-1.53,1.1,4.73,4.73,0,0,1-1.83.35,4.94,4.94,0,0,1-1.9-.35,3.82,3.82,0,0,1-1.53-1.09,5.34,5.34,0,0,1-1-1.9,9.48,9.48,0,0,1-.36-2.78,8.38,8.38,0,0,1,.39-2.71,5.68,5.68,0,0,1,1-1.9,4.1,4.1,0,0,1,1.54-1.13A4.51,4.51,0,0,1,885.89,209Zm-2.5,6.11a9.58,9.58,0,0,0,.21,2.2,3.92,3.92,0,0,0,.56,1.36,1.91,1.91,0,0,0,.81.7,2.21,2.21,0,0,0,.94.2,2.23,2.23,0,0,0,1-.21,2,2,0,0,0,.79-.72,4.08,4.08,0,0,0,.54-1.37,11.64,11.64,0,0,0,0-4.35,4.13,4.13,0,0,0-.55-1.36,1.9,1.9,0,0,0-.79-.69,2.39,2.39,0,0,0-1.89,0,1.8,1.8,0,0,0-.8.71,4.32,4.32,0,0,0-.55,1.36A9.27,9.27,0,0,0,883.39,215.12Z"/><path class="cls-25" d="M898.11,209a5,5,0,0,1,1.92.35,3.86,3.86,0,0,1,1.52,1.08,5.14,5.14,0,0,1,1,1.89,9.5,9.5,0,0,1,.36,2.79,8.75,8.75,0,0,1-.39,2.76,5.54,5.54,0,0,1-1,1.91,4,4,0,0,1-1.53,1.1,4.73,4.73,0,0,1-1.83.35,5,5,0,0,1-1.91-.35,3.86,3.86,0,0,1-1.52-1.09,5.19,5.19,0,0,1-1-1.9,9.48,9.48,0,0,1-.36-2.78,8.38,8.38,0,0,1,.39-2.71,5.68,5.68,0,0,1,1-1.9,4.07,4.07,0,0,1,1.53-1.13A4.59,4.59,0,0,1,898.11,209Zm-2.51,6.11a9.58,9.58,0,0,0,.21,2.2,4.13,4.13,0,0,0,.56,1.36,2,2,0,0,0,.82.7,2.21,2.21,0,0,0,.94.2,2.23,2.23,0,0,0,1-.21,2,2,0,0,0,.79-.72,4.08,4.08,0,0,0,.54-1.37,10,10,0,0,0,.2-2.16,9.49,9.49,0,0,0-.21-2.19,4.13,4.13,0,0,0-.55-1.36,1.9,1.9,0,0,0-.79-.69,2.39,2.39,0,0,0-1.89,0,1.87,1.87,0,0,0-.81.71,4.57,4.57,0,0,0-.55,1.36A9.27,9.27,0,0,0,895.6,215.12Z"/><path class="cls-25" d="M908.26,209.21H910v11.85h-2.18v-9.75l-2.18,1-.5-1.72Z"/><path class="cls-25" d="M918.54,209a5,5,0,0,1,1.92.35,3.86,3.86,0,0,1,1.52,1.08,5.14,5.14,0,0,1,1,1.89,9.5,9.5,0,0,1,.36,2.79,8.75,8.75,0,0,1-.39,2.76,5.54,5.54,0,0,1-1.05,1.91,4,4,0,0,1-1.53,1.1,4.73,4.73,0,0,1-1.83.35,5,5,0,0,1-1.91-.35,3.86,3.86,0,0,1-1.52-1.09,5.19,5.19,0,0,1-1-1.9,9.48,9.48,0,0,1-.36-2.78,8.38,8.38,0,0,1,.39-2.71,5.68,5.68,0,0,1,1.05-1.9,4.07,4.07,0,0,1,1.53-1.13A4.56,4.56,0,0,1,918.54,209ZM916,215.12a9.58,9.58,0,0,0,.21,2.2,4.13,4.13,0,0,0,.56,1.36,2,2,0,0,0,.81.7,2.28,2.28,0,0,0,.95.2,2.23,2.23,0,0,0,1-.21,2,2,0,0,0,.79-.72,4.08,4.08,0,0,0,.54-1.37,10,10,0,0,0,.2-2.16,9.49,9.49,0,0,0-.21-2.19,4.13,4.13,0,0,0-.55-1.36,1.9,1.9,0,0,0-.79-.69,2.37,2.37,0,0,0-1-.19,2.45,2.45,0,0,0-.95.2,1.91,1.91,0,0,0-.8.71,4.57,4.57,0,0,0-.55,1.36A9.27,9.27,0,0,0,916,215.12Z"/><path class="cls-25" d="M928.69,209.21h1.76v11.85h-2.18v-9.75l-2.18,1-.5-1.72Z"/><path class="cls-25" d="M856.65,188.77a5.24,5.24,0,0,1,1.92.35,3.79,3.79,0,0,1,1.52,1.08,5.14,5.14,0,0,1,1,1.89,9.52,9.52,0,0,1,.37,2.79,8.65,8.65,0,0,1-.4,2.76,5.45,5.45,0,0,1-1,1.91,4.12,4.12,0,0,1-1.53,1.11,4.92,4.92,0,0,1-1.83.35,5.14,5.14,0,0,1-1.9-.35,3.94,3.94,0,0,1-1.53-1.1,5.26,5.26,0,0,1-1-1.9,9.43,9.43,0,0,1-.36-2.78,8.43,8.43,0,0,1,.39-2.71,5.68,5.68,0,0,1,1-1.9,4.13,4.13,0,0,1,1.54-1.13A4.51,4.51,0,0,1,856.65,188.77Zm-2.51,6.11a9.52,9.52,0,0,0,.21,2.2,4.12,4.12,0,0,0,.57,1.36,1.84,1.84,0,0,0,.81.7,2.21,2.21,0,0,0,.94.2,2.23,2.23,0,0,0,1-.21,2,2,0,0,0,.79-.72A4.08,4.08,0,0,0,859,197a9.92,9.92,0,0,0,.2-2.16,9.55,9.55,0,0,0-.21-2.19,4.22,4.22,0,0,0-.55-1.36,1.9,1.9,0,0,0-.79-.69,2.39,2.39,0,0,0-1.89,0,1.8,1.8,0,0,0-.8.71,4.57,4.57,0,0,0-.56,1.36A9.27,9.27,0,0,0,854.14,194.88Z"/><path class="cls-25" d="M866.8,189h1.76v11.86h-2.18v-9.76l-2.18,1-.5-1.72Z"/><path class="cls-25" d="M877.08,188.77a5.24,5.24,0,0,1,1.92.35,3.86,3.86,0,0,1,1.52,1.08,5.14,5.14,0,0,1,1,1.89,9.55,9.55,0,0,1,.36,2.79,8.66,8.66,0,0,1-.39,2.76,5.45,5.45,0,0,1-1,1.91,4.12,4.12,0,0,1-1.53,1.11,4.92,4.92,0,0,1-1.83.35,5.23,5.23,0,0,1-1.91-.35,4,4,0,0,1-1.52-1.1,5.11,5.11,0,0,1-1-1.9,9.43,9.43,0,0,1-.36-2.78,8.43,8.43,0,0,1,.39-2.71,5.68,5.68,0,0,1,1.05-1.9,4.18,4.18,0,0,1,1.53-1.13A4.59,4.59,0,0,1,877.08,188.77Zm-2.51,6.11a9.52,9.52,0,0,0,.21,2.2,4.13,4.13,0,0,0,.56,1.36,1.92,1.92,0,0,0,.82.7,2.21,2.21,0,0,0,.94.2,2.23,2.23,0,0,0,.95-.21,2,2,0,0,0,.79-.72,4.08,4.08,0,0,0,.54-1.37,9.92,9.92,0,0,0,.2-2.16,9.55,9.55,0,0,0-.21-2.19,4.22,4.22,0,0,0-.55-1.36,1.9,1.9,0,0,0-.79-.69,2.39,2.39,0,0,0-1.89,0,1.87,1.87,0,0,0-.81.71,4.57,4.57,0,0,0-.55,1.36A9.27,9.27,0,0,0,874.57,194.88Z"/><path class="cls-25" d="M887.23,189H889v11.86h-2.18v-9.76l-2.18,1-.5-1.72Z"/><path class="cls-25" d="M895.64,189h1.77v11.86h-2.19v-9.76l-2.18,1-.5-1.72Z"/><path class="cls-25" d="M905.92,188.77a5.24,5.24,0,0,1,1.92.35,3.79,3.79,0,0,1,1.52,1.08,5.14,5.14,0,0,1,1,1.89,9.52,9.52,0,0,1,.37,2.79,8.65,8.65,0,0,1-.4,2.76,5.45,5.45,0,0,1-1.05,1.91,4.12,4.12,0,0,1-1.53,1.11,4.92,4.92,0,0,1-1.83.35,5.14,5.14,0,0,1-1.9-.35,3.94,3.94,0,0,1-1.53-1.1,5.26,5.26,0,0,1-1-1.9,9.43,9.43,0,0,1-.36-2.78,8.43,8.43,0,0,1,.39-2.71,5.68,5.68,0,0,1,1.05-1.9,4.13,4.13,0,0,1,1.54-1.13A4.51,4.51,0,0,1,905.92,188.77Zm-2.51,6.11a9.52,9.52,0,0,0,.21,2.2,4.12,4.12,0,0,0,.57,1.36,1.84,1.84,0,0,0,.81.7,2.21,2.21,0,0,0,.94.2,2.23,2.23,0,0,0,.95-.21,2,2,0,0,0,.79-.72,4.08,4.08,0,0,0,.54-1.37,9.92,9.92,0,0,0,.2-2.16,9.55,9.55,0,0,0-.21-2.19,4.22,4.22,0,0,0-.55-1.36,1.9,1.9,0,0,0-.79-.69,2.39,2.39,0,0,0-1.89,0,1.8,1.8,0,0,0-.8.71,4.57,4.57,0,0,0-.56,1.36A9.27,9.27,0,0,0,903.41,194.88Z"/><path class="cls-25" d="M916.07,189h1.76v11.86h-2.18v-9.76l-2.18,1-.5-1.72Z"/><path class="cls-25" d="M926.35,188.77a5.24,5.24,0,0,1,1.92.35,3.86,3.86,0,0,1,1.52,1.08,5.14,5.14,0,0,1,1,1.89,9.55,9.55,0,0,1,.36,2.79,8.66,8.66,0,0,1-.39,2.76,5.45,5.45,0,0,1-1,1.91,4.12,4.12,0,0,1-1.53,1.11,4.92,4.92,0,0,1-1.83.35,5.23,5.23,0,0,1-1.91-.35,4,4,0,0,1-1.52-1.1,5.11,5.11,0,0,1-1-1.9,9.43,9.43,0,0,1-.36-2.78,8.43,8.43,0,0,1,.39-2.71,5.68,5.68,0,0,1,1-1.9,4.18,4.18,0,0,1,1.53-1.13A4.59,4.59,0,0,1,926.35,188.77Zm-2.51,6.11a9.52,9.52,0,0,0,.21,2.2,4.13,4.13,0,0,0,.56,1.36,1.92,1.92,0,0,0,.82.7,2.21,2.21,0,0,0,.94.2,2.23,2.23,0,0,0,1-.21,2,2,0,0,0,.79-.72,4.08,4.08,0,0,0,.54-1.37,9.92,9.92,0,0,0,.2-2.16,9.55,9.55,0,0,0-.21-2.19,4.22,4.22,0,0,0-.55-1.36,1.9,1.9,0,0,0-.79-.69,2.39,2.39,0,0,0-1.89,0,1.87,1.87,0,0,0-.81.71,4.57,4.57,0,0,0-.55,1.36A9.27,9.27,0,0,0,923.84,194.88Z"/><path class="cls-25" d="M1737.19,379.53h-89.52a15.1,15.1,0,0,0-15.1,15.1V436.1a15.1,15.1,0,0,0,15.1,15.1h6.56v10.55a3,3,0,0,0,5.16,2.14l12.69-12.69h65.11a15.1,15.1,0,0,0,15.1-15.1V394.63A15.1,15.1,0,0,0,1737.19,379.53Z"/><path class="cls-21" d="M1675.61,433.73a2.68,2.68,0,0,1-1.88-.77L1658,417.18a2.67,2.67,0,0,1,0-3.75l15.66-15.65a2.65,2.65,0,0,1,3.75,3.75l-13.78,13.77,13.9,13.9a2.65,2.65,0,0,1-1.87,4.53Z"/><path class="cls-21" d="M1709.25,433.73a2.65,2.65,0,0,1-1.87-4.53l13.89-13.9-13.77-13.77a2.65,2.65,0,0,1,3.75-3.75l15.65,15.65a2.64,2.64,0,0,1,0,3.75L1711.13,433A2.68,2.68,0,0,1,1709.25,433.73Z"/><path class="cls-21" d="M1685.1,433.73a2.61,2.61,0,0,1-1.12-.25,2.65,2.65,0,0,1-1.29-3.52l14.66-31.43a2.65,2.65,0,0,1,4.81,2.24L1687.5,432.2A2.63,2.63,0,0,1,1685.1,433.73Z"/><path class="cls-35" d="M663.29,252.18v62.46a16.54,16.54,0,0,0,16.54,16.54h44a16.53,16.53,0,0,1,16.54,16.53v89.4"/><path class="cls-35" d="M947.72,847.26h100.92a12.81,12.81,0,0,0,12.81-12.81V782.28a12.8,12.8,0,0,0-12.81-12.81H956.9"/><path class="cls-35" d="M1356.32,234.37v37.92A26.37,26.37,0,0,1,1330,298.66H1173.5A26.38,26.38,0,0,0,1147.13,325V412"/><path class="cls-21" d="M882.41,477h9.8l17,26c1.15,1.78,2.2,3.52,3.17,5.22s1.66,3,2.08,3.95h.16c-.32-3.39-.47-6.78-.47-10.15V477h10v49.38h-9.8l-15.83-24c-.68-1.05-1.35-2.13-2-3.26s-1.27-2.2-1.84-3.25-1.09-2-1.53-2.86a18,18,0,0,1-1-2.16H892c.26,3.61.41,7.07.43,10.39s0,6.7,0,10.15v15h-10Z"/><path class="cls-21" d="M934.93,477h10.74V517.9h19.91v8.46H934.93Z"/><path class="cls-21" d="M971.61,477h17.33a27.8,27.8,0,0,1,7.8,1,17.29,17.29,0,0,1,6,3,13.33,13.33,0,0,1,3.8,4.74,14.71,14.71,0,0,1,1.33,6.39,15.75,15.75,0,0,1-1.57,7.29,14.32,14.32,0,0,1-4.27,5.05,18.59,18.59,0,0,1-6.31,3,29,29,0,0,1-7.68,1h-5.65v17.95H971.61Zm10.74,23.2h4.39a21,21,0,0,0,3.88-.35,9,9,0,0,0,3.22-1.26,6.39,6.39,0,0,0,2.15-2.35,7.6,7.6,0,0,0,.79-3.64,6.44,6.44,0,0,0-2.59-5.65,11.28,11.28,0,0,0-6.58-1.8h-5.26Z"/></g></g></svg>